<svg width="20" height="21" viewBox="0 0 20 21" fill="none" xmlns="http://www.w3.org/2000/svg">
<path d="M16.9308 3.95411C15.6561 3.36921 14.2892 2.93828 12.8599 2.69147C12.8339 2.6867 12.8079 2.69861 12.7945 2.72241C12.6187 3.03509 12.4239 3.44301 12.2876 3.76363C10.7503 3.53349 9.22099 3.53349 7.71527 3.76363C7.57887 3.43588 7.37707 3.03509 7.20048 2.72241C7.18707 2.6994 7.16107 2.6875 7.13504 2.69147C5.70659 2.93749 4.33963 3.36842 3.06411 3.95411C3.05307 3.95887 3.04361 3.96681 3.03732 3.97712C0.444493 7.85075 -0.265792 11.6292 0.0826501 15.3608C0.0842267 15.379 0.0944749 15.3965 0.108665 15.4076C1.81934 16.6639 3.47642 17.4265 5.10273 17.9321C5.12876 17.94 5.15634 17.9305 5.1729 17.909C5.55761 17.3837 5.90054 16.8297 6.19456 16.2472C6.21192 16.2131 6.19535 16.1726 6.15989 16.1591C5.61594 15.9528 5.098 15.7012 4.59978 15.4155C4.56037 15.3925 4.55721 15.3361 4.59347 15.3091C4.69831 15.2306 4.80318 15.1488 4.9033 15.0663C4.92141 15.0512 4.94665 15.0481 4.96794 15.0576C8.24107 16.552 11.7846 16.552 15.0191 15.0576C15.0404 15.0473 15.0657 15.0504 15.0846 15.0655C15.1847 15.1481 15.2896 15.2306 15.3952 15.3091C15.4314 15.3361 15.4291 15.3925 15.3897 15.4155C14.8914 15.7068 14.3735 15.9528 13.8288 16.1583C13.7933 16.1718 13.7775 16.2131 13.7949 16.2472C14.0952 16.8289 14.4381 17.3829 14.8157 17.9082C14.8315 17.9305 14.8599 17.94 14.8859 17.9321C16.5201 17.4265 18.1772 16.6639 19.8879 15.4076C19.9028 15.3965 19.9123 15.3798 19.9139 15.3615C20.3309 11.0474 19.2154 7.29999 16.9568 3.97791C16.9513 3.96681 16.9419 3.95887 16.9308 3.95411ZM6.68335 13.0886C5.69792 13.0886 4.88594 12.1839 4.88594 11.0728C4.88594 9.96177 5.68217 9.05706 6.68335 9.05706C7.69239 9.05706 8.49651 9.96971 8.48073 11.0728C8.48073 12.1839 7.68451 13.0886 6.68335 13.0886ZM13.329 13.0886C12.3435 13.0886 11.5316 12.1839 11.5316 11.0728C11.5316 9.96177 12.3278 9.05706 13.329 9.05706C14.338 9.05706 15.1421 9.96971 15.1264 11.0728C15.1264 12.1839 14.338 13.0886 13.329 13.0886Z" fill="white"/>
</svg>
