<svg width="58" height="58" viewBox="0 0 58 58" fill="none" xmlns="http://www.w3.org/2000/svg">
<path d="M14.7616 57.752V52.709C14.7616 52.3535 14.5054 52.2001 14.2034 52.2001C13.5981 52.2001 12.842 52.3535 12.1557 52.6613V57.752H10.7598V48.3884H12.1556V51.4775C12.819 51.2293 13.6099 51.0164 14.4011 51.0164C15.669 51.0164 16.1461 51.8094 16.1461 52.8979V57.752H14.7616ZM18.7515 54.6978C18.7979 56.3906 19.1238 56.7222 20.1471 56.7222C20.9499 56.7222 21.8574 56.4497 22.5556 56.1774L22.7882 57.2426C22.0435 57.5862 21.1362 57.9175 20.0546 57.9175C17.7276 57.9175 17.3668 56.6157 17.3668 54.5437C17.3668 53.4076 17.4484 52.3775 17.7159 51.4305C18.4139 51.1582 19.3447 51.0163 20.5193 51.0163C22.4278 51.0163 23.0092 52.0936 23.0092 53.9757V54.6978H18.7515ZM20.5193 52.2001C20.1011 52.2001 19.4377 52.2119 18.891 52.3179C18.8331 52.6021 18.7629 52.9929 18.7396 53.7152H21.648C21.648 52.7323 21.4735 52.2001 20.5193 52.2001ZM25.6261 52.6613V57.752H24.23V52.0223C25.4051 51.3714 26.6498 51.1701 27.4645 51.111V52.2947C26.8945 52.342 26.1727 52.4131 25.6261 52.6613ZM31.1519 57.9175C29.0692 57.9175 28.127 56.876 28.127 54.4964C28.127 51.975 29.3717 51.0164 31.1519 51.0164C33.2342 51.0164 34.1766 52.0578 34.1766 54.4373C34.1766 56.9588 32.9316 57.9175 31.1519 57.9175ZM31.1519 52.2002C30.0815 52.2002 29.4883 52.8273 29.4883 54.4964C29.4883 56.3197 29.9884 56.7222 31.1519 56.7222C32.2221 56.7222 32.8155 56.1064 32.8155 54.4373C32.8155 52.614 32.3153 52.2002 31.1519 52.2002ZM40.9118 57.752H39.2712C38.8876 56.7103 38.352 55.6448 37.5261 54.7215H36.7931V57.752H35.3972V48.3884H36.7931V53.7624H37.4447C38.1544 53.0165 38.701 52.0936 39.0851 51.1819H40.6554C40.1205 52.2828 39.4342 53.2535 38.6663 54.0466C39.5854 55.2304 40.3067 56.4852 40.9118 57.752ZM43.5285 57.9175C42.2607 57.9175 41.7837 57.1247 41.7837 56.0354V51.1819H43.168V56.2129C43.168 56.5685 43.4236 56.7222 43.7261 56.7222C44.3312 56.7222 45.1571 56.5685 45.8437 56.2605V51.1819H47.2398V56.8876C45.5878 57.8111 44.3195 57.9175 43.5285 57.9175Z" fill="#858585"/>
<path d="M33.6114 39.6721V21.4035C33.6114 21.4035 34.7792 17.0318 19.2271 23.1919C19.1986 23.2701 19.1986 6.29887 19.1986 6.29887L24.2801 6.26697V17.1407C24.2801 17.1407 38.5082 11.4385 38.5082 21.4651V39.6721H33.6114ZM36.507 12.8479H31.1171C33.0573 10.4343 34.8136 6.29872 34.8136 6.29872H40.3867C40.3867 6.29872 39.4324 8.99384 36.507 12.8479ZM19.2909 39.6405V29.237L24.4035 34.4392L19.2909 39.6405Z" fill="#858585"/>
</svg>
