<svg width="117" height="30" viewBox="0 0 117 30" fill="none" xmlns="http://www.w3.org/2000/svg">
<g clip-path="url(#clip0_182_1053)">
<path d="M8.74027 3.09112C7.5951 1.7101 6.60896 0.307495 6.4075 0.0161839C6.38629 -0.00539464 6.35447 -0.00539464 6.33327 0.0161839C6.1318 0.307495 5.14568 1.7101 4.00049 3.09112C-5.82897 15.8332 5.54861 24.4323 5.54861 24.4323L5.64404 24.497C5.72886 25.8241 5.94094 27.7338 5.94094 27.7338H6.36508H6.78922C6.78922 27.7338 7.00129 25.8349 7.08612 24.497L7.18155 24.4215C7.19215 24.4215 18.5698 15.8332 8.74027 3.09112ZM6.36508 24.2381C6.36508 24.2381 5.85612 23.7957 5.71827 23.5691V23.5476L6.33327 9.67257C6.33327 9.62942 6.3969 9.62942 6.3969 9.67257L7.01189 23.5476V23.5691C6.87405 23.7957 6.36508 24.2381 6.36508 24.2381Z" fill="#858585"/>
<path d="M27.6582 21.3225L22.917 9.63665L22.9064 9.60437H19.2176V10.3899H19.8129C19.9936 10.3899 20.1637 10.4652 20.2913 10.5943C20.4188 10.7235 20.4826 10.8957 20.4826 11.0786L20.3764 22.8397C20.3764 23.2055 20.0788 23.5068 19.7172 23.5176L19.1113 23.5284V24.3031H22.7045V23.5284L22.3323 23.5176C21.9709 23.5068 21.6732 23.2055 21.6732 22.8397V11.7565L26.8397 24.3031C26.914 24.486 27.0841 24.6044 27.2755 24.6044C27.4668 24.6044 27.6369 24.486 27.7114 24.3031L32.7608 12.0362L32.8353 22.8397C32.8353 23.2163 32.5376 23.5176 32.1655 23.5284H31.7828V24.3031H35.9925V23.5284H35.4184C35.057 23.5284 34.7593 23.2163 34.7487 22.8504L34.7168 11.0893C34.7168 10.7127 35.0144 10.4114 35.3759 10.4006L35.9925 10.3899V9.60437H32.3993L27.6582 21.3225Z" fill="#858585"/>
<path d="M60.7156 23.4125C60.5983 23.2931 60.5343 23.1305 60.5343 22.9353V17.122C60.5343 16.0157 60.2147 15.1481 59.5751 14.5299C58.9464 13.9117 58.0724 13.5972 56.9853 13.5972C55.4611 13.5972 54.2568 14.2262 53.4148 15.4626C53.4041 15.4843 53.3722 15.4952 53.3402 15.4952C53.3082 15.4952 53.2869 15.4735 53.2869 15.4409L52.8925 13.89H52.2317L50.5371 14.8769V15.4192H50.9741C51.1766 15.4192 51.3471 15.4735 51.4644 15.5819C51.5816 15.6904 51.6455 15.8531 51.6455 16.0808V22.9244C51.6455 23.1196 51.5816 23.2823 51.4644 23.4016C51.3471 23.5209 51.1873 23.586 50.9954 23.586H50.5691V24.3776H54.4699V23.586H54.0436C53.8518 23.586 53.6919 23.5209 53.5746 23.4016C53.4574 23.2823 53.3934 23.1196 53.3934 22.9244V18.4126C53.3934 17.8377 53.5214 17.263 53.7559 16.699C54.0009 16.1459 54.3633 15.6795 54.843 15.3216C55.3225 14.9637 55.8981 14.7902 56.5589 14.7902C57.305 14.7902 57.8699 15.0288 58.2215 15.5059C58.5733 15.9832 58.7545 16.6014 58.7545 17.3389V22.9353C58.7545 23.1305 58.6905 23.2931 58.5733 23.4125C58.4561 23.5317 58.2962 23.5968 58.1043 23.5968H57.678V24.3885H61.5789V23.5968H61.1526C60.9927 23.5968 60.8434 23.5426 60.7156 23.4125Z" fill="#858585"/>
<path d="M96.3551 10.4906C95.2768 9.90697 94.0716 9.60437 92.7714 9.60437H87.6973V10.3933H88.1941C88.3844 10.3933 88.5535 10.4689 88.7227 10.6419C88.8813 10.8039 88.9658 10.9877 88.9658 11.1822V22.8107C88.9658 23.0052 88.8813 23.189 88.7227 23.3511C88.5642 23.5131 88.3844 23.5996 88.1941 23.5996H87.6973V24.3885H92.7714C94.0716 24.3885 95.2768 24.086 96.3551 23.5024C97.4332 22.9188 98.3107 22.0542 98.945 20.9519C99.5792 19.8496 99.9069 18.5203 99.9069 17.0072C99.9069 15.4943 99.5792 14.1758 98.945 13.0627C98.3001 11.9388 97.4332 11.0742 96.3551 10.4906ZM97.8667 16.9857C97.8667 18.369 97.6236 19.5361 97.1478 20.4763C96.6722 21.4166 96.0378 22.119 95.2556 22.5729C94.4734 23.0269 93.6065 23.2538 92.6762 23.2538H91.6508C91.4606 23.2538 91.2915 23.1782 91.1223 23.0052C90.9637 22.8431 90.8792 22.6594 90.8792 22.4649V11.5065C90.8792 11.3119 90.9532 11.139 91.1223 10.966C91.2808 10.8039 91.4606 10.7175 91.6508 10.7175H92.6762C93.6065 10.7175 94.4734 10.9444 95.2556 11.3983C96.0378 11.8522 96.6722 12.5547 97.1478 13.495C97.6236 14.4351 97.8667 15.6023 97.8667 16.9857Z" fill="#858585"/>
<path d="M111.901 17.7746C111.432 17.2234 110.526 16.7587 109.461 16.5101C110.932 15.7644 111.688 14.7161 111.688 13.3653C111.688 12.6304 111.496 11.9711 111.112 11.4091C110.729 10.8472 110.185 10.3933 109.493 10.0799C108.8 9.76648 107.99 9.60437 107.073 9.60437H101.33V10.3933H101.788C101.98 10.3933 102.15 10.4689 102.321 10.6419C102.481 10.8039 102.566 10.9877 102.566 11.1822V22.8107C102.566 23.0052 102.481 23.189 102.321 23.3511C102.161 23.5131 101.98 23.5996 101.788 23.5996H101.287V24.3885H107.521C108.47 24.3885 109.354 24.2265 110.153 23.9022C110.953 23.578 111.592 23.1025 112.051 22.4757C112.519 21.8489 112.754 21.0815 112.754 20.1953C112.743 19.2443 112.466 18.4447 111.901 17.7746ZM104.75 23.016C104.591 22.8539 104.505 22.6702 104.505 22.4757V17.2559H107.468C108.512 17.2559 109.311 17.526 109.866 18.0663C110.42 18.6067 110.697 19.3092 110.697 20.1738C110.697 20.6925 110.569 21.2004 110.335 21.6651C110.09 22.1407 109.727 22.5189 109.237 22.8107C108.757 23.1025 108.161 23.2538 107.468 23.2538H105.283C105.092 23.2646 104.921 23.189 104.75 23.016ZM104.516 16.1426V11.5065C104.516 11.3119 104.591 11.139 104.761 10.966C104.921 10.8039 105.102 10.7175 105.294 10.7175H106.701C107.713 10.7175 108.459 10.9769 108.928 11.474C109.396 11.9819 109.631 12.6304 109.631 13.4301C109.631 14.2515 109.407 14.9107 108.971 15.4079C108.533 15.8941 107.873 16.1426 106.999 16.1426H104.516Z" fill="#858585"/>
<path d="M45.8657 14.2864C45.0514 13.8341 44.1419 13.5972 43.1585 13.5972C42.175 13.5972 41.255 13.8234 40.4512 14.2864C39.6369 14.7388 38.9918 15.3958 38.516 16.2251C38.0401 17.0544 37.7969 18.0238 37.7969 19.1008C37.7969 20.1777 38.0401 21.1471 38.516 21.9764C38.9918 22.8058 39.6369 23.4627 40.4512 23.9151C41.2656 24.3674 42.175 24.6044 43.1585 24.6044C44.1419 24.6044 45.062 24.3782 45.8657 23.9151C46.6801 23.4627 47.3252 22.8058 47.801 21.9764C48.2769 21.1471 48.5201 20.1777 48.5201 19.1008C48.5201 18.0238 48.2769 17.0544 47.801 16.2251C47.3252 15.3851 46.6801 14.7388 45.8657 14.2864ZM46.6483 19.1008C46.6483 20.4255 46.3311 21.5025 45.6965 22.278C45.0726 23.0534 44.2161 23.452 43.1585 23.452C42.101 23.452 41.2443 23.0534 40.6205 22.278C39.9859 21.5025 39.6687 20.4255 39.6687 19.1008C39.6687 17.776 39.9859 16.699 40.6205 15.9236C41.2443 15.1481 42.101 14.7496 43.1585 14.7496C44.2161 14.7496 45.0726 15.1481 45.6965 15.9236C46.3311 16.699 46.6483 17.7652 46.6483 19.1008Z" fill="#858585"/>
<path d="M83.3443 14.2864C82.5299 13.8341 81.6205 13.5972 80.637 13.5972C79.6535 13.5972 78.7335 13.8234 77.9298 14.2864C77.1154 14.7388 76.4703 15.3958 75.9945 16.2251C75.5186 17.0544 75.2754 18.0238 75.2754 19.1008C75.2754 20.1777 75.5186 21.1471 75.9945 21.9764C76.4703 22.8058 77.1154 23.4627 77.9298 23.9151C78.7441 24.3674 79.6535 24.6044 80.637 24.6044C81.6205 24.6044 82.5405 24.3782 83.3443 23.9151C84.1586 23.4627 84.8037 22.8058 85.2795 21.9764C85.7554 21.1471 85.9986 20.1777 85.9986 19.1008C85.9986 18.0238 85.7554 17.0544 85.2795 16.2251C84.8037 15.3851 84.148 14.7388 83.3443 14.2864ZM84.1268 19.1008C84.1268 20.4255 83.8095 21.5025 83.175 22.278C82.5511 23.0534 81.6945 23.452 80.637 23.452C79.5794 23.452 78.7229 23.0534 78.099 22.278C77.4644 21.5025 77.1472 20.4255 77.1472 19.1008C77.1472 17.7652 77.4644 16.699 78.099 15.9236C78.7229 15.1481 79.5794 14.7496 80.637 14.7496C81.6945 14.7496 82.5511 15.1481 83.175 15.9236C83.799 16.699 84.1268 17.7652 84.1268 19.1008Z" fill="#858585"/>
<path d="M68.2297 13.5972C67.3776 13.5972 66.6002 13.7811 65.8972 14.1489C65.1943 14.5168 64.6405 15.0146 64.2464 15.6529C63.8524 16.2804 63.65 16.9838 63.65 17.7304C63.65 18.4012 63.7991 19.0179 64.1079 19.5698C64.4062 20.0999 64.8109 20.5435 65.3221 20.9113L63.7991 23.0105C63.6073 23.2701 63.5861 23.6163 63.7245 23.8976C63.8736 24.1898 64.1505 24.363 64.4701 24.363H64.9068C64.4807 24.6551 64.1399 25.0013 63.9056 25.4124C63.6287 25.8776 63.4902 26.3645 63.4902 26.8622C63.4902 27.7928 63.895 28.561 64.6937 29.1345C65.4819 29.7079 66.5895 30 67.9846 30C68.9539 30 69.8804 29.8377 70.7218 29.5239C71.5738 29.2102 72.2661 28.7449 72.7773 28.1391C73.2992 27.5331 73.5655 26.7974 73.5655 25.9534C73.5655 25.0662 73.2459 24.4386 72.5004 23.8328C71.8615 23.3242 70.8603 23.0538 69.6142 23.0538H65.3541C65.3434 23.0538 65.3327 23.0429 65.3327 23.0429C65.3327 23.0429 65.3221 23.0213 65.3327 23.0105L66.4404 21.4957C66.7386 21.6363 67.0155 21.7229 67.2605 21.7769C67.516 21.8311 67.8036 21.8527 68.1231 21.8527C69.0178 21.8527 69.8272 21.6688 70.5301 21.3009C71.233 20.933 71.7976 20.4353 72.2023 19.7969C72.6069 19.1694 72.8093 18.4661 72.8093 17.7196C72.8093 16.9189 72.4259 15.4581 71.3821 14.7116C71.3821 14.7008 71.3928 14.7008 71.3928 14.7008L73.6826 14.9604V13.8893H70.0189C69.4438 13.6945 68.8474 13.5972 68.2297 13.5972ZM69.5077 20.3704C69.1029 20.5867 68.6663 20.7058 68.2297 20.7058C67.5161 20.7058 66.8877 20.4461 66.3551 19.9376C65.8227 19.429 65.5564 18.6825 65.5564 17.7304C65.5564 16.7782 65.8227 16.0316 66.3551 15.5231C66.8877 15.0146 67.5161 14.7549 68.2297 14.7549C68.677 14.7549 69.1029 14.8631 69.5077 15.0903C69.9124 15.3067 70.2426 15.6421 70.5089 16.0858C70.7644 16.5294 70.9029 17.0812 70.9029 17.7304C70.9029 18.3904 70.775 18.9421 70.5089 19.375C70.2532 19.8186 69.9124 20.1432 69.5077 20.3704ZM66.6214 24.3521H69.5077C70.3065 24.3521 70.8177 24.5144 71.1585 24.8607C71.4993 25.2068 71.6697 25.6721 71.6697 26.2131C71.6697 27.003 71.3609 27.6522 70.7432 28.1391C70.1254 28.626 69.2947 28.8748 68.2723 28.8748C67.3776 28.8748 66.632 28.6693 66.0889 28.2797C65.5457 27.8902 65.2688 27.2951 65.2688 26.5377C65.2688 26.0616 65.3966 25.618 65.6523 25.2285C65.9078 24.839 66.2167 24.5576 66.6214 24.3521Z" fill="#858585"/>
<path d="M114.914 24.208C114.704 24.0911 114.546 23.9211 114.42 23.7193C114.304 23.507 114.24 23.2839 114.24 23.0396C114.24 22.7953 114.304 22.5616 114.42 22.3598C114.535 22.1474 114.704 21.9881 114.914 21.8712C115.126 21.7545 115.357 21.6907 115.62 21.6907C115.884 21.6907 116.115 21.7545 116.326 21.8712C116.537 21.9881 116.695 22.158 116.821 22.3598C116.937 22.5722 117.001 22.7953 117.001 23.0396C117.001 23.2839 116.937 23.5175 116.821 23.7193C116.706 23.9318 116.537 24.0911 116.326 24.208C116.115 24.3247 115.884 24.3885 115.62 24.3885C115.368 24.3885 115.126 24.3247 114.914 24.208ZM116.211 24.0486C116.389 23.9531 116.517 23.8044 116.622 23.6344C116.716 23.4539 116.769 23.2521 116.769 23.029C116.769 22.806 116.716 22.6042 116.622 22.4235C116.526 22.243 116.389 22.105 116.211 22.0093C116.031 21.9137 115.841 21.8606 115.62 21.8606C115.4 21.8606 115.21 21.9137 115.03 22.0093C114.852 22.105 114.724 22.2537 114.619 22.4235C114.525 22.6042 114.472 22.806 114.472 23.029C114.472 23.2521 114.525 23.4539 114.619 23.6344C114.715 23.815 114.852 23.9531 115.03 24.0486C115.21 24.1442 115.4 24.1973 115.62 24.1973C115.841 24.1973 116.042 24.1549 116.211 24.0486ZM115.051 23.6769V23.5813L115.073 23.5706H115.136C115.156 23.5706 115.178 23.5601 115.188 23.5494C115.21 23.5282 115.21 23.5175 115.21 23.4963V22.5086C115.21 22.4873 115.199 22.466 115.188 22.4555C115.167 22.4342 115.156 22.4342 115.136 22.4342H115.073L115.051 22.4235V22.328L115.073 22.3173H115.62C115.779 22.3173 115.894 22.3492 115.989 22.4235C116.084 22.4979 116.126 22.5935 116.126 22.7209C116.126 22.8165 116.095 22.9121 116.021 22.9758C115.947 23.0502 115.863 23.0927 115.757 23.1034L115.884 23.1458L116.126 23.5388C116.147 23.5706 116.168 23.5813 116.2 23.5813H116.263L116.273 23.5919V23.6875L116.263 23.6981H115.937L115.916 23.6875L115.578 23.1139H115.494V23.4963C115.494 23.5175 115.505 23.5388 115.515 23.5494C115.537 23.5706 115.547 23.5706 115.567 23.5706H115.631L115.652 23.5813V23.6769L115.631 23.6875H115.073L115.051 23.6769ZM115.589 22.9865C115.674 22.9865 115.747 22.9652 115.789 22.9121C115.831 22.8696 115.863 22.7953 115.863 22.7104C115.863 22.6253 115.841 22.5616 115.8 22.5086C115.757 22.4555 115.694 22.4342 115.62 22.4342H115.578C115.557 22.4342 115.537 22.4448 115.526 22.4555C115.505 22.4766 115.505 22.4873 115.505 22.5086V22.9865H115.589Z" fill="#858585"/>
</g>
<defs>
<clipPath id="clip0_182_1053">
<rect width="117" height="30" fill="white"/>
</clipPath>
</defs>
</svg>
