<svg width="50" height="50" viewBox="0 0 50 50" fill="none" xmlns="http://www.w3.org/2000/svg">
<path d="M26.7954 4.01992C25.7085 3.40866 24.2915 3.4114 23.2037 4.01992C17.7555 7.0266 12.3072 10.0342 6.85799 13.0395C5.79765 13.5973 5.08248 14.736 5.09388 15.9179V34.0846C5.08623 35.2895 5.83827 36.4392 6.92596 36.9894C8.49115 37.8221 10.0118 38.7393 11.6053 39.5166C13.446 40.4211 15.7488 40.6211 17.612 39.6778C19.1244 38.8961 19.7962 37.1574 19.7942 35.5595C19.8065 29.564 19.7962 23.5684 19.799 17.5728C19.8349 17.3064 19.6348 17.0216 19.3442 17.028C18.6479 17.017 17.9507 17.0216 17.2545 17.0262C16.9914 17.0014 16.7346 17.2199 16.7545 17.4843C16.7452 23.4412 16.7564 29.3999 16.7489 35.3577C16.764 36.1818 16.2073 36.9738 15.413 37.2521C13.5787 37.8951 8.34303 34.4956 8.34303 34.4956C8.15089 34.4066 8.02888 34.1982 8.04771 33.9912C8.04771 27.9976 8.04865 22.0038 8.04771 16.0111C8.0213 15.7695 8.17021 15.5519 8.39209 15.4532C13.8224 12.4643 19.2498 9.46783 24.6801 6.47702C24.8688 6.35114 25.1317 6.35152 25.3199 6.47794C30.7501 9.46783 36.1786 12.4615 41.6098 15.4506C41.8324 15.5491 41.975 15.7704 41.9523 16.0111C41.9514 22.0038 41.9542 27.9976 41.9505 33.9904C41.9666 34.2025 41.8569 34.408 41.6589 34.5011C36.2793 37.4739 30.8385 40.3508 25.5076 43.4099C25.275 43.5433 25.0115 43.6944 24.7509 43.5474C23.349 42.772 21.9641 41.9664 20.5669 41.1835C20.415 41.0887 20.2216 41.048 20.0631 41.1541C19.4367 41.4842 18.8474 41.7516 18.1281 42.0364C17.1177 42.4363 17.2791 42.5999 18.1904 43.1308C19.8244 44.0555 21.4611 44.9765 23.0951 45.9022C24.1708 46.5735 25.6162 46.6213 26.7265 46.0009C32.1756 42.998 37.623 39.9916 43.0732 36.9886C44.1579 36.4354 44.9137 35.2903 44.9061 34.0844V15.9179C44.9167 14.76 44.2288 13.6416 43.2004 13.0755C37.7333 10.0542 32.2635 7.03942 26.7954 4.01992Z" fill="#858585"/>
<path d="M35.0173 17.6594C32.8786 16.5153 30.3343 16.4543 27.9576 16.604C26.2406 16.7736 24.4348 17.2474 23.1839 18.4782C21.9009 19.7155 21.6216 21.7134 22.231 23.3286C22.6678 24.47 23.767 25.2122 24.9038 25.6048C26.3682 26.1217 27.9062 26.2816 29.4446 26.4415C30.8478 26.5872 32.2515 26.7332 33.6003 27.1501C34.1512 27.3327 34.7928 27.612 34.9615 28.2114C35.1174 28.9213 34.9465 29.7465 34.3702 30.2397C32.5394 31.6888 27.4468 31.4667 25.6379 30.3262C24.9066 29.8404 24.5915 28.9803 24.4633 28.1606C24.4491 27.9052 24.2434 27.6709 23.9661 27.6904C23.2717 27.6821 22.5773 27.6839 21.8828 27.6894C21.6406 27.6691 21.3887 27.8415 21.3754 28.0888C21.2327 31.843 24.6806 33.4796 27.9153 33.8399C29.7634 34.0159 31.6521 34.0058 33.4719 33.6092C34.84 33.2978 36.2117 32.7242 37.1534 31.6705C38.3147 30.3899 38.543 28.4834 38.0222 26.8883C37.6241 25.698 36.4862 24.9346 35.3231 24.5418C33.7413 23.9994 31.8667 23.7079 30.4341 23.5714C28.3518 23.3731 25.8773 23.4542 25.2879 22.0858C25.0528 21.3694 25.2528 20.4797 25.9112 20.039C27.6534 18.8573 31.199 19.0143 33.0031 19.8971C33.8315 20.3119 34.3115 21.1639 34.5097 22.024C34.5464 22.2766 34.7164 22.5403 35.0089 22.5293C35.6985 22.5431 36.3882 22.533 37.0777 22.5339C37.3146 22.5504 37.574 22.4167 37.6203 22.1742C37.591 20.3765 36.673 18.5362 35.0173 17.6594Z" fill="#858585"/>
</svg>
