<svg width="20" height="21" viewBox="0 0 20 21" fill="none" xmlns="http://www.w3.org/2000/svg">
<g clip-path="url(#clip0_541_1753)">
<path fill-rule="evenodd" clip-rule="evenodd" d="M20 10.4912C20 16.0141 15.5228 20.4912 10 20.4912C4.47715 20.4912 0 16.0141 0 10.4912C0 4.96836 4.47715 0.491211 10 0.491211C15.5228 0.491211 20 4.96836 20 10.4912ZM10.3584 7.87365C9.38571 8.27821 7.44178 9.11554 4.52658 10.3856C4.05319 10.5739 3.80521 10.7581 3.78264 10.9381C3.74449 11.2425 4.12559 11.3623 4.64456 11.5255C4.71515 11.5477 4.78829 11.5707 4.86328 11.5951C5.37386 11.761 6.06069 11.9552 6.41774 11.9629C6.74162 11.9699 7.10311 11.8364 7.5022 11.5623C10.226 9.72371 11.632 8.79439 11.7203 8.77435C11.7825 8.76022 11.8688 8.74244 11.9273 8.79442C11.9858 8.84639 11.98 8.94481 11.9738 8.97121C11.9361 9.13216 10.4401 10.523 9.66593 11.2427C9.42459 11.4671 9.25339 11.6262 9.2184 11.6626C9.14 11.744 9.06011 11.821 8.98332 11.895C8.50897 12.3523 8.15326 12.6952 9.00301 13.2552C9.41137 13.5243 9.73814 13.7468 10.0641 13.9688C10.4201 14.2113 10.7752 14.4531 11.2347 14.7543C11.3517 14.831 11.4635 14.9107 11.5724 14.9883C11.9867 15.2837 12.359 15.5491 12.8188 15.5067C13.086 15.4821 13.3621 15.2309 13.5022 14.4815C13.8335 12.7105 14.4847 8.87326 14.6352 7.29202C14.6484 7.15349 14.6318 6.97619 14.6185 6.89836C14.6051 6.82053 14.5773 6.70963 14.4761 6.62754C14.3563 6.53032 14.1714 6.50982 14.0886 6.51128C13.7125 6.51791 13.1355 6.71856 10.3584 7.87365Z" fill="white"/>
</g>
<defs>
<clipPath id="clip0_541_1753">
<rect width="20" height="20" fill="white" transform="translate(0 0.491211)"/>
</clipPath>
</defs>
</svg>
