<svg width="51" height="48" viewBox="0 0 51 48" fill="none" xmlns="http://www.w3.org/2000/svg">
<g clip-path="url(#clip0_182_1068)">
<path d="M27.7589 12.6964L38.5548 0H35.9966L26.6225 11.0241L19.1354 0H10.5L21.8219 16.6704L10.5 29.9846H13.0584L22.9577 18.3427L30.8646 29.9846H39.5L27.7583 12.6964H27.7589ZM24.2548 16.8173L23.1077 15.1573L13.9803 1.94852H17.9099L25.2758 12.6084L26.4229 14.2684L35.9978 28.1247H32.0682L24.2548 16.8179V16.8173Z" fill="#858585"/>
</g>
<path d="M0.403078 44.25L3.94308 39.378V40.554L0.571078 35.85H2.33508L4.84308 39.33L4.12308 39.342L6.60708 35.85H8.29908L4.95108 40.47V39.342L8.51508 44.25H6.71508L4.07508 40.554H4.78308L2.17908 44.25H0.403078ZM11.3918 44.25L15.1718 35.85H16.7078L20.4998 44.25H18.8678L15.6158 36.678H16.2398L12.9998 44.25H11.3918ZM13.1318 42.306L13.5518 41.082H18.0878L18.5078 42.306H13.1318ZM21.3281 44.25V35.85H24.7841C25.5281 35.85 26.1641 35.97 26.6921 36.21C27.2281 36.45 27.6401 36.794 27.9281 37.242C28.2161 37.69 28.3601 38.222 28.3601 38.838C28.3601 39.454 28.2161 39.986 27.9281 40.434C27.6401 40.882 27.2281 41.226 26.6921 41.466C26.1641 41.706 25.5281 41.826 24.7841 41.826H22.1921L22.8881 41.094V44.25H21.3281ZM22.8881 41.262L22.1921 40.506H24.7121C25.4001 40.506 25.9161 40.362 26.2601 40.074C26.6121 39.778 26.7881 39.366 26.7881 38.838C26.7881 38.302 26.6121 37.89 26.2601 37.602C25.9161 37.314 25.4001 37.17 24.7121 37.17H22.1921L22.8881 36.402V41.262ZM29.6779 44.25V35.85H31.2379V44.25H29.6779ZM38.8304 44.25L35.1584 35.85H36.8504L40.1264 43.446H39.1544L42.4664 35.85H44.0264L40.3664 44.25H38.8304ZM44.1405 44.25V43.206L47.4765 40.038C47.7565 39.774 47.9645 39.542 48.1005 39.342C48.2365 39.142 48.3245 38.958 48.3645 38.79C48.4125 38.614 48.4365 38.45 48.4365 38.298C48.4365 37.914 48.3045 37.618 48.0405 37.41C47.7765 37.194 47.3885 37.086 46.8765 37.086C46.4685 37.086 46.0965 37.158 45.7605 37.302C45.4325 37.446 45.1485 37.666 44.9085 37.962L43.8165 37.122C44.1445 36.682 44.5845 36.342 45.1365 36.102C45.6965 35.854 46.3205 35.73 47.0085 35.73C47.6165 35.73 48.1445 35.83 48.5925 36.03C49.0485 36.222 49.3965 36.498 49.6365 36.858C49.8845 37.218 50.0085 37.646 50.0085 38.142C50.0085 38.414 49.9725 38.686 49.9005 38.958C49.8285 39.222 49.6925 39.502 49.4925 39.798C49.2925 40.094 49.0005 40.426 48.6165 40.794L45.7485 43.518L45.4245 42.93H50.3325V44.25H44.1405Z" fill="#858585"/>
<defs>
<clipPath id="clip0_182_1068">
<rect width="29" height="30" fill="white" transform="translate(10.5)"/>
</clipPath>
</defs>
</svg>
