<svg width="276" height="188" viewBox="0 0 276 188" fill="none" xmlns="http://www.w3.org/2000/svg">
<g clip-path="url(#clip0_144_9490)">
<circle cx="52" cy="126" r="1" fill="#FF7400"/>
<circle cx="49.5" cy="147.5" r="0.5" fill="#FF0000"/>
<circle cx="38.5" cy="130.5" r="0.5" fill="#FF0000"/>
<circle cx="52.5" cy="134.5" r="0.5" fill="#FF7000"/>
<circle cx="87.5" cy="162.5" r="0.5" fill="#FF7000"/>
<circle cx="51" cy="49" r="1" fill="#FF0000"/>
<circle cx="17.5" cy="84.5" r="0.5" fill="#FF0000"/>
<circle cx="94.5" cy="163.5" r="0.5" fill="#FF0000"/>
<circle cx="51.5" cy="57.5" r="0.5" fill="#FF7000"/>
<circle cx="55.5" cy="147.5" r="0.5" fill="#FF7000"/>
<circle cx="86.5" cy="88.5" r="73" stroke="url(#paint0_radial_144_9490)" stroke-opacity="0.1" stroke-linecap="round" stroke-linejoin="round" stroke-dasharray="3 3"/>
<circle cx="86.5" cy="88.5" r="64" stroke="url(#paint1_radial_144_9490)" stroke-opacity="0.05" stroke-linecap="round" stroke-linejoin="round" stroke-dasharray="3 3"/>
<circle cx="86.5" cy="88.5" r="82" stroke="url(#paint2_radial_144_9490)" stroke-opacity="0.2" stroke-linecap="round" stroke-linejoin="round" stroke-dasharray="3 3"/>
<path d="M58 2.5H285C286.933 2.5 288.5 4.067 288.5 6V150C288.5 151.933 286.933 153.5 285 153.5H58C56.067 153.5 54.5 151.933 54.5 150V6C54.5 4.12727 55.9708 2.59842 57.8203 2.50488L58 2.5Z" fill="url(#paint3_linear_144_9490)"/>
<path d="M58 2.5H285C286.933 2.5 288.5 4.067 288.5 6V150C288.5 151.933 286.933 153.5 285 153.5H58C56.067 153.5 54.5 151.933 54.5 150V6C54.5 4.12727 55.9708 2.59842 57.8203 2.50488L58 2.5Z" fill="url(#paint4_linear_144_9490)" fill-opacity="0.2"/>
<path d="M58 2.5H285C286.933 2.5 288.5 4.067 288.5 6V150C288.5 151.933 286.933 153.5 285 153.5H58C56.067 153.5 54.5 151.933 54.5 150V6C54.5 4.12727 55.9708 2.59842 57.8203 2.50488L58 2.5Z" stroke="url(#paint5_linear_144_9490)"/>
<path d="M65 76C65 75.4477 65.4477 75 66 75H238C238.552 75 239 75.4477 239 76V79C239 79.5523 238.552 80 238 80H66C65.4477 80 65 79.5523 65 79V76Z" fill="url(#paint6_linear_144_9490)" fill-opacity="0.2"/>
<path d="M65 93C65 92.4477 65.4477 92 66 92H129C129.552 92 130 92.4477 130 93V96C130 96.5523 129.552 97 129 97H66C65.4477 97 65 96.5523 65 96V93Z" fill="url(#paint7_linear_144_9490)" fill-opacity="0.2"/>
<path d="M65 110C65 109.448 65.4477 109 66 109H188C188.552 109 189 109.448 189 110V113C189 113.552 188.552 114 188 114H66C65.4477 114 65 113.552 65 113V110Z" fill="url(#paint8_linear_144_9490)" fill-opacity="0.2"/>
<path d="M66.1584 45V36.2727H71.8345V37.598H67.7393V39.9673H71.5405V41.2926H67.7393V43.6747H71.8686V45H66.1584ZM73.3039 37.598V36.2727H80.267V37.598H77.5695V45H76.0014V37.598H73.3039ZM81.8493 45V36.2727H83.4303V39.9673H87.4743V36.2727H89.0595V45H87.4743V41.2926H83.4303V45H81.8493ZM96.5204 36.2727H98.1014V41.9744C98.1014 42.5994 97.9537 43.1491 97.6582 43.6236C97.3656 44.098 96.9537 44.4687 96.4224 44.7358C95.8912 45 95.2704 45.1321 94.5602 45.1321C93.8471 45.1321 93.225 45 92.6937 44.7358C92.1625 44.4687 91.7505 44.098 91.4579 43.6236C91.1653 43.1491 91.019 42.5994 91.019 41.9744V36.2727H92.6V41.8423C92.6 42.206 92.6795 42.5298 92.8386 42.8139C93.0005 43.098 93.2278 43.321 93.5204 43.483C93.813 43.642 94.1596 43.7216 94.5602 43.7216C94.9608 43.7216 95.3074 43.642 95.6 43.483C95.8954 43.321 96.1227 43.098 96.2818 42.8139C96.4409 42.5298 96.5204 42.206 96.5204 41.8423V36.2727ZM104.803 38.6719C104.763 38.2997 104.595 38.0099 104.3 37.8026C104.007 37.5952 103.627 37.4915 103.158 37.4915C102.828 37.4915 102.546 37.5412 102.31 37.6406C102.074 37.7401 101.894 37.875 101.769 38.0455C101.644 38.2159 101.58 38.4105 101.577 38.6293C101.577 38.8111 101.618 38.9687 101.7 39.1023C101.786 39.2358 101.901 39.3494 102.046 39.4432C102.19 39.5341 102.351 39.6108 102.527 39.6733C102.703 39.7358 102.881 39.7884 103.06 39.831L103.878 40.0355C104.208 40.1122 104.524 40.2159 104.828 40.3466C105.135 40.4773 105.409 40.642 105.651 40.8409C105.895 41.0398 106.088 41.2798 106.23 41.5611C106.372 41.8423 106.443 42.1719 106.443 42.5497C106.443 43.0611 106.313 43.5114 106.051 43.9006C105.79 44.2869 105.412 44.5895 104.918 44.8082C104.426 45.0241 103.831 45.1321 103.132 45.1321C102.453 45.1321 101.864 45.027 101.364 44.8168C100.867 44.6065 100.477 44.2997 100.196 43.8963C99.9177 43.4929 99.7672 43.0014 99.7444 42.4219H101.3C101.323 42.7259 101.416 42.9787 101.581 43.1804C101.746 43.3821 101.96 43.5327 102.225 43.6321C102.492 43.7315 102.79 43.7812 103.119 43.7812C103.463 43.7812 103.764 43.7301 104.023 43.6278C104.284 43.5227 104.489 43.3778 104.636 43.1932C104.784 43.0057 104.859 42.7869 104.862 42.5369C104.859 42.3097 104.793 42.1222 104.662 41.9744C104.531 41.8239 104.348 41.6989 104.112 41.5994C103.879 41.4972 103.607 41.4062 103.294 41.3267L102.301 41.071C101.583 40.8864 101.014 40.6065 100.597 40.2315C100.182 39.8537 99.9746 39.3523 99.9746 38.7273C99.9746 38.2131 100.114 37.7628 100.392 37.3764C100.673 36.9901 101.056 36.6903 101.538 36.4773C102.021 36.2614 102.568 36.1534 103.179 36.1534C103.798 36.1534 104.341 36.2614 104.807 36.4773C105.276 36.6903 105.644 36.9872 105.911 37.3679C106.178 37.7457 106.315 38.1804 106.324 38.6719H104.803ZM111.05 45H108.093V36.2727H111.11C111.976 36.2727 112.721 36.4474 113.343 36.7969C113.968 37.1435 114.448 37.642 114.783 38.2926C115.118 38.9432 115.286 39.7216 115.286 40.6278C115.286 41.5369 115.117 42.3182 114.779 42.9716C114.444 43.625 113.959 44.1264 113.326 44.4759C112.695 44.8253 111.937 45 111.05 45ZM109.674 43.6321H110.973C111.581 43.6321 112.088 43.5213 112.495 43.2997C112.901 43.0753 113.206 42.7415 113.411 42.2983C113.615 41.8523 113.718 41.2955 113.718 40.6278C113.718 39.9602 113.615 39.4062 113.411 38.9659C113.206 38.5227 112.904 38.1918 112.503 37.973C112.106 37.7514 111.611 37.6406 111.02 37.6406H109.674V43.6321ZM116.258 37.598V36.2727H123.221V37.598H120.523V45H118.955V37.598H116.258Z" fill="url(#paint9_linear_144_9490)"/>
<path d="M69.0805 58.973V59.7543H65.8987V58.973H69.0805ZM72.7131 63.0994C72.178 63.0994 71.7223 62.9538 71.3459 62.6626C70.9695 62.3691 70.6818 61.9441 70.483 61.3878C70.2841 60.8291 70.1847 60.1544 70.1847 59.3636C70.1847 58.5777 70.2841 57.9065 70.483 57.3501C70.6842 56.7914 70.973 56.3653 71.3494 56.0717C71.7282 55.7758 72.1828 55.6278 72.7131 55.6278C73.2434 55.6278 73.6968 55.7758 74.0732 56.0717C74.452 56.3653 74.7408 56.7914 74.9396 57.3501C75.1409 57.9065 75.2415 58.5777 75.2415 59.3636C75.2415 60.1544 75.1421 60.8291 74.9432 61.3878C74.7443 61.9441 74.4567 62.3691 74.0803 62.6626C73.7039 62.9538 73.2481 63.0994 72.7131 63.0994ZM72.7131 62.3182C73.2434 62.3182 73.6553 62.0625 73.9489 61.5511C74.2424 61.0398 74.3892 60.3106 74.3892 59.3636C74.3892 58.7339 74.3218 58.1977 74.1868 57.755C74.0542 57.3123 73.8625 56.9749 73.6115 56.7429C73.3629 56.5109 73.0635 56.3949 72.7131 56.3949C72.1875 56.3949 71.7768 56.6541 71.4808 57.1726C71.1849 57.6887 71.0369 58.419 71.0369 59.3636C71.0369 59.9934 71.1032 60.5284 71.2358 60.9688C71.3684 61.4091 71.559 61.7441 71.8075 61.9737C72.0585 62.2034 72.3603 62.3182 72.7131 62.3182ZM76.762 63.0568C76.5868 63.0568 76.4365 62.9941 76.311 62.8686C76.1856 62.7431 76.1228 62.5928 76.1228 62.4176C76.1228 62.2424 76.1856 62.0921 76.311 61.9666C76.4365 61.8411 76.5868 61.7784 76.762 61.7784C76.9372 61.7784 77.0875 61.8411 77.213 61.9666C77.3385 62.0921 77.4012 62.2424 77.4012 62.4176C77.4012 62.5336 77.3716 62.6402 77.3124 62.7372C77.2556 62.8343 77.1787 62.9124 77.0816 62.9716C76.9869 63.0284 76.8804 63.0568 76.762 63.0568ZM80.8518 63.0994C80.5535 63.0947 80.2552 63.0379 79.9569 62.929C79.6586 62.8201 79.3864 62.6366 79.1401 62.3786C78.8939 62.1181 78.6963 61.7666 78.5471 61.3239C78.398 60.8788 78.3234 60.3201 78.3234 59.6477C78.3234 59.0038 78.3838 58.4332 78.5045 57.9361C78.6252 57.4366 78.8004 57.0163 79.0301 56.6754C79.2597 56.3321 79.5367 56.0717 79.861 55.8942C80.1877 55.7166 80.5559 55.6278 80.9654 55.6278C81.3726 55.6278 81.7348 55.7095 82.0521 55.8729C82.3717 56.0339 82.6321 56.2588 82.8333 56.5476C83.0346 56.8364 83.1648 57.169 83.224 57.5455H82.3575C82.277 57.2187 82.1207 56.9477 81.8887 56.7322C81.6567 56.5168 81.349 56.4091 80.9654 56.4091C80.402 56.4091 79.9581 56.6541 79.6338 57.1442C79.3118 57.6342 79.1496 58.322 79.1472 59.2074H79.2041C79.3366 59.0062 79.4941 58.8345 79.6764 58.6925C79.861 58.5481 80.0646 58.4368 80.2872 58.3587C80.5097 58.2805 80.7453 58.2415 80.9938 58.2415C81.4105 58.2415 81.7917 58.3456 82.1373 58.554C82.4829 58.7599 82.7599 59.0452 82.9683 59.4098C83.1766 59.772 83.2808 60.1875 83.2808 60.6562C83.2808 61.1061 83.1802 61.518 82.9789 61.892C82.7777 62.2637 82.4948 62.5597 82.1302 62.7798C81.768 62.9976 81.3418 63.1042 80.8518 63.0994ZM80.8518 62.3182C81.1501 62.3182 81.4176 62.2436 81.6543 62.0945C81.8935 61.9453 82.0817 61.7453 82.219 61.4943C82.3587 61.2434 82.4285 60.964 82.4285 60.6562C82.4285 60.3556 82.361 60.0821 82.2261 59.8359C82.0935 59.5874 81.91 59.3897 81.6757 59.2429C81.4436 59.0961 81.1785 59.0227 80.8802 59.0227C80.6553 59.0227 80.4458 59.0677 80.2517 59.1577C80.0575 59.2453 79.8871 59.366 79.7403 59.5199C79.5959 59.6738 79.4822 59.8501 79.3994 60.049C79.3165 60.2455 79.2751 60.4527 79.2751 60.6705C79.2751 60.9593 79.3426 61.2292 79.4775 61.4801C79.6148 61.7311 79.8018 61.9335 80.0386 62.0874C80.2777 62.2412 80.5488 62.3182 80.8518 62.3182ZM86.8068 63.0994C86.3191 63.0994 85.8882 63.013 85.5142 62.8402C85.1425 62.665 84.8525 62.4247 84.6442 62.1193C84.4358 61.8116 84.3328 61.4612 84.3352 61.0682C84.3328 60.7604 84.3932 60.4763 84.5163 60.2159C84.6394 59.9531 84.8075 59.7341 85.0206 59.5589C85.236 59.3814 85.4763 59.2689 85.7415 59.2216V59.179C85.3934 59.089 85.1165 58.8937 84.9105 58.593C84.7045 58.29 84.6027 57.9455 84.6051 57.5597C84.6027 57.1903 84.6962 56.8601 84.8856 56.5689C85.075 56.2777 85.3354 56.0481 85.6669 55.88C86.0007 55.7119 86.3807 55.6278 86.8068 55.6278C87.2282 55.6278 87.6046 55.7119 87.9361 55.88C88.2675 56.0481 88.5279 56.2777 88.7173 56.5689C88.9091 56.8601 89.0061 57.1903 89.0085 57.5597C89.0061 57.9455 88.9008 58.29 88.6925 58.593C88.4865 58.8937 88.2131 59.089 87.8721 59.179V59.2216C88.1349 59.2689 88.3717 59.3814 88.5824 59.5589C88.7931 59.7341 88.9612 59.9531 89.0866 60.2159C89.2121 60.4763 89.276 60.7604 89.2784 61.0682C89.276 61.4612 89.1695 61.8116 88.9588 62.1193C88.7505 62.4247 88.4604 62.665 88.0888 62.8402C87.7194 63.013 87.2921 63.0994 86.8068 63.0994ZM86.8068 62.3182C87.1359 62.3182 87.42 62.2649 87.6591 62.1584C87.8982 62.0518 88.0828 61.9015 88.2131 61.7074C88.3433 61.5133 88.4095 61.286 88.4119 61.0256C88.4095 60.7509 88.3385 60.5083 88.1988 60.2976C88.0592 60.0869 87.8686 59.9212 87.6271 59.8004C87.388 59.6797 87.1146 59.6193 86.8068 59.6193C86.4967 59.6193 86.2197 59.6797 85.9758 59.8004C85.7344 59.9212 85.5438 60.0869 85.4041 60.2976C85.2668 60.5083 85.1993 60.7509 85.2017 61.0256C85.1993 61.286 85.2621 61.5133 85.3899 61.7074C85.5201 61.9015 85.7059 62.0518 85.9474 62.1584C86.1889 62.2649 86.4754 62.3182 86.8068 62.3182ZM86.8068 58.8665C87.0672 58.8665 87.298 58.8144 87.4993 58.7102C87.7029 58.6061 87.8627 58.4605 87.9787 58.2734C88.0947 58.0864 88.1539 57.8674 88.1562 57.6165C88.1539 57.3703 88.0959 57.156 87.9822 56.9737C87.8686 56.7891 87.7112 56.647 87.5099 56.5476C87.3087 56.4458 87.0743 56.3949 86.8068 56.3949C86.5345 56.3949 86.2966 56.4458 86.093 56.5476C85.8894 56.647 85.732 56.7891 85.6207 56.9737C85.5095 57.156 85.455 57.3703 85.4574 57.6165C85.455 57.8674 85.5106 58.0864 85.6243 58.2734C85.7403 58.4605 85.9001 58.6061 86.1037 58.7102C86.3073 58.8144 86.5416 58.8665 86.8068 58.8665ZM94.1468 61.6364V61.2528C94.1468 60.9877 94.2012 60.745 94.3101 60.5249C94.4214 60.3023 94.5824 60.1248 94.7931 59.9922C95.0061 59.8572 95.2642 59.7898 95.5672 59.7898C95.875 59.7898 96.133 59.8572 96.3414 59.9922C96.5497 60.1248 96.7071 60.3023 96.8137 60.5249C96.9202 60.745 96.9735 60.9877 96.9735 61.2528V61.6364C96.9735 61.9015 96.919 62.1454 96.8101 62.3679C96.7036 62.5881 96.545 62.7656 96.3343 62.9006C96.1259 63.0331 95.8702 63.0994 95.5672 63.0994C95.2594 63.0994 95.0002 63.0331 94.7895 62.9006C94.5788 62.7656 94.419 62.5881 94.3101 62.3679C94.2012 62.1454 94.1468 61.9015 94.1468 61.6364ZM94.8712 61.2528V61.6364C94.8712 61.8565 94.9233 62.0542 95.0274 62.2294C95.1316 62.4022 95.3115 62.4886 95.5672 62.4886C95.8158 62.4886 95.991 62.4022 96.0928 62.2294C96.1969 62.0542 96.249 61.8565 96.249 61.6364V61.2528C96.249 61.0327 96.1993 60.8362 96.0999 60.6634C96.0004 60.4882 95.8229 60.4006 95.5672 60.4006C95.3186 60.4006 95.1399 60.4882 95.031 60.6634C94.9244 60.8362 94.8712 61.0327 94.8712 61.2528ZM90.5246 57.4744V57.0909C90.5246 56.8258 90.579 56.5831 90.6879 56.3629C90.7992 56.1404 90.9602 55.9628 91.1709 55.8303C91.384 55.6953 91.642 55.6278 91.945 55.6278C92.2528 55.6278 92.5109 55.6953 92.7192 55.8303C92.9275 55.9628 93.085 56.1404 93.1915 56.3629C93.298 56.5831 93.3513 56.8258 93.3513 57.0909V57.4744C93.3513 57.7396 93.2968 57.9834 93.1879 58.206C93.0814 58.4261 92.9228 58.6037 92.7121 58.7386C92.5038 58.8712 92.2481 58.9375 91.945 58.9375C91.6373 58.9375 91.378 58.8712 91.1673 58.7386C90.9566 58.6037 90.7968 58.4261 90.6879 58.206C90.579 57.9834 90.5246 57.7396 90.5246 57.4744ZM91.249 57.0909V57.4744C91.249 57.6946 91.3011 57.8923 91.4053 58.0675C91.5094 58.2403 91.6894 58.3267 91.945 58.3267C92.1936 58.3267 92.3688 58.2403 92.4706 58.0675C92.5748 57.8923 92.6269 57.6946 92.6269 57.4744V57.0909C92.6269 56.8707 92.5771 56.6742 92.4777 56.5014C92.3783 56.3262 92.2007 56.2386 91.945 56.2386C91.6965 56.2386 91.5177 56.3262 91.4088 56.5014C91.3023 56.6742 91.249 56.8707 91.249 57.0909ZM90.7945 63L95.7945 55.7273H96.6041L91.6041 63H90.7945Z" fill="url(#paint10_linear_144_9490)"/>
<circle cx="67" cy="13" r="2" fill="#FF0000"/>
<circle cx="74" cy="13" r="2" fill="#FF7400"/>
<circle cx="81" cy="13" r="2" fill="#9D4800"/>
<line x1="65" y1="22.75" x2="289" y2="22.75" stroke="url(#paint11_linear_144_9490)" stroke-opacity="0.2" stroke-width="0.5"/>
</g>
<defs>
<radialGradient id="paint0_radial_144_9490" cx="0" cy="0" r="1" gradientUnits="userSpaceOnUse" gradientTransform="translate(87 15) rotate(90.1949) scale(147.001)">
<stop stop-color="#FF0900" stop-opacity="0.2"/>
<stop offset="0.55" stop-color="#FF7400"/>
<stop offset="1" stop-color="#FF2300" stop-opacity="0.2"/>
</radialGradient>
<radialGradient id="paint1_radial_144_9490" cx="0" cy="0" r="1" gradientUnits="userSpaceOnUse" gradientTransform="translate(86.9388 24) rotate(90.1949) scale(129.001)">
<stop stop-color="#FF0900" stop-opacity="0.2"/>
<stop offset="0.55" stop-color="#FF7400"/>
<stop offset="1" stop-color="#FF2300" stop-opacity="0.2"/>
</radialGradient>
<radialGradient id="paint2_radial_144_9490" cx="0" cy="0" r="1" gradientUnits="userSpaceOnUse" gradientTransform="translate(87.0612 6) rotate(90.1949) scale(165.001)">
<stop stop-color="#FF0900" stop-opacity="0.2"/>
<stop offset="0.55" stop-color="#FF7400"/>
<stop offset="1" stop-color="#FF2300" stop-opacity="0.2"/>
</radialGradient>
<linearGradient id="paint3_linear_144_9490" x1="279" y1="107.5" x2="54" y2="78" gradientUnits="userSpaceOnUse">
<stop stop-color="#121212"/>
<stop offset="1" stop-color="#1E1E1E"/>
</linearGradient>
<linearGradient id="paint4_linear_144_9490" x1="54" y1="78" x2="295" y2="-2" gradientUnits="userSpaceOnUse">
<stop stop-color="#141414"/>
<stop offset="1" stop-color="#222222" stop-opacity="0"/>
</linearGradient>
<linearGradient id="paint5_linear_144_9490" x1="54" y1="71.5" x2="213.5" y2="2" gradientUnits="userSpaceOnUse">
<stop stop-color="#2D2D2D"/>
<stop offset="1" stop-color="#1A1A1A" stop-opacity="0"/>
</linearGradient>
<linearGradient id="paint6_linear_144_9490" x1="239" y1="77.5" x2="65" y2="77.5" gradientUnits="userSpaceOnUse">
<stop stop-color="#282828"/>
<stop offset="1" stop-color="#5C5C5C"/>
</linearGradient>
<linearGradient id="paint7_linear_144_9490" x1="130" y1="94.5" x2="65" y2="94.5" gradientUnits="userSpaceOnUse">
<stop stop-color="#282828"/>
<stop offset="1" stop-color="#5C5C5C"/>
</linearGradient>
<linearGradient id="paint8_linear_144_9490" x1="189" y1="111.5" x2="65" y2="111.5" gradientUnits="userSpaceOnUse">
<stop stop-color="#282828"/>
<stop offset="1" stop-color="#5C5C5C"/>
</linearGradient>
<linearGradient id="paint9_linear_144_9490" x1="94.5" y1="33" x2="94.5" y2="48" gradientUnits="userSpaceOnUse">
<stop stop-color="white"/>
<stop offset="1" stop-color="#999999"/>
</linearGradient>
<linearGradient id="paint10_linear_144_9490" x1="81.5" y1="53" x2="81.5" y2="65" gradientUnits="userSpaceOnUse">
<stop stop-color="white"/>
<stop offset="1" stop-color="#999999"/>
</linearGradient>
<linearGradient id="paint11_linear_144_9490" x1="65" y1="23.5" x2="289" y2="23.5" gradientUnits="userSpaceOnUse">
<stop stop-color="#7B7B7B" stop-opacity="0.1"/>
<stop offset="0.51" stop-color="#AEAEAE"/>
<stop offset="1" stop-color="#484848"/>
</linearGradient>
<clipPath id="clip0_144_9490">
<rect width="276" height="188" fill="white"/>
</clipPath>
</defs>
</svg>
