<svg width="276" height="188" viewBox="0 0 276 188" fill="none" xmlns="http://www.w3.org/2000/svg">
<g clip-path="url(#clip0_144_9519)">
<rect x="52" y="3" width="109" height="94" rx="4" fill="#1E1E1E"/>
<rect x="52" y="3" width="109" height="94" rx="4" fill="url(#paint0_linear_144_9519)" fill-opacity="0.2"/>
<rect x="52" y="3" width="109" height="94" rx="4" fill="black" fill-opacity="0.2"/>
<path d="M62.047 65.7146L53.5719 69.7291C53.2227 69.8945 53 70.2464 53 70.6328V96.5C53 97.0523 53.4477 97.5 54 97.5H160C160.552 97.5 161 97.0523 161 96.5V63.3628C161 62.8671 160.637 62.4462 160.147 62.3736L147.895 60.5585C147.641 60.5209 147.412 60.3875 147.254 60.1856L138.5 49L137.389 47.3329C136.978 46.7177 136.065 46.745 135.693 47.3838L133.654 50.8795C133.323 51.4459 132.546 51.5464 132.083 51.0827L130.981 49.9811C130.498 49.4984 129.685 49.6305 129.38 50.241L128.434 52.1327C128.058 52.8838 126.98 52.8655 126.63 52.1022L123.009 44.2007C122.637 43.39 121.47 43.4343 121.161 44.271L110.856 72.1823C110.544 73.0254 109.366 73.0618 109.003 72.2396L103.166 59.0088C102.863 58.3218 101.939 58.2014 101.47 58.7877L99.0915 61.7606C98.7598 62.1753 98.1616 62.2583 97.7294 61.9496L92.1493 57.9638C91.7695 57.6925 91.2525 57.72 90.9037 58.0301L83.2047 64.8736C82.809 65.2253 82.2077 65.2077 81.8333 64.8333L80.1643 63.1643C79.7909 62.7909 79.1915 62.7722 78.7956 63.1216L71.5184 69.5425C71.2065 69.8178 70.7566 69.8712 70.3889 69.6765L62.943 65.7345C62.6642 65.5869 62.3321 65.5795 62.047 65.7146Z" fill="url(#paint1_radial_144_9519)" fill-opacity="0.5"/>
<path d="M69.0302 17.6719C68.9904 17.2997 68.8228 17.0099 68.5273 16.8026C68.2347 16.5952 67.854 16.4915 67.3853 16.4915C67.0557 16.4915 66.7731 16.5412 66.5373 16.6406C66.3015 16.7401 66.1211 16.875 65.9961 17.0455C65.8711 17.2159 65.8072 17.4105 65.8043 17.6293C65.8043 17.8111 65.8455 17.9687 65.9279 18.1023C66.0131 18.2358 66.1282 18.3494 66.2731 18.4432C66.418 18.5341 66.5785 18.6108 66.7546 18.6733C66.9307 18.7358 67.1083 18.7884 67.2873 18.831L68.1055 19.0355C68.435 19.1122 68.7518 19.2159 69.0557 19.3466C69.3626 19.4773 69.6367 19.642 69.8782 19.8409C70.1225 20.0398 70.3157 20.2798 70.4577 20.5611C70.5998 20.8423 70.6708 21.1719 70.6708 21.5497C70.6708 22.0611 70.5401 22.5114 70.2788 22.9006C70.0174 23.2869 69.6396 23.5895 69.1452 23.8082C68.6538 24.0241 68.0586 24.1321 67.3597 24.1321C66.6807 24.1321 66.0913 24.027 65.5913 23.8168C65.0941 23.6065 64.7049 23.2997 64.4236 22.8963C64.1452 22.4929 63.9947 22.0014 63.9719 21.4219H65.5273C65.5501 21.7259 65.6438 21.9787 65.8086 22.1804C65.9734 22.3821 66.1878 22.5327 66.4521 22.6321C66.7191 22.7315 67.0174 22.7812 67.3469 22.7812C67.6907 22.7812 67.9918 22.7301 68.2503 22.6278C68.5117 22.5227 68.7163 22.3778 68.864 22.1932C69.0117 22.0057 69.087 21.7869 69.0898 21.5369C69.087 21.3097 69.0202 21.1222 68.8896 20.9744C68.7589 20.8239 68.5756 20.6989 68.3398 20.5994C68.1069 20.4972 67.8342 20.4062 67.5217 20.3267L66.5288 20.071C65.81 19.8864 65.2418 19.6065 64.8242 19.2315C64.4094 18.8537 64.2021 18.3523 64.2021 17.7273C64.2021 17.2131 64.3413 16.7628 64.6197 16.3764C64.9009 15.9901 65.283 15.6903 65.766 15.4773C66.2489 15.2614 66.7958 15.1534 67.4066 15.1534C68.0259 15.1534 68.5685 15.2614 69.0344 15.4773C69.5032 15.6903 69.8711 15.9872 70.1381 16.3679C70.4052 16.7457 70.543 17.1804 70.5515 17.6719H69.0302ZM80.1185 19.6364C80.1185 20.5767 79.9424 21.3821 79.5901 22.0526C79.2407 22.7202 78.7634 23.2315 78.1583 23.5866C77.556 23.9418 76.8728 24.1193 76.1086 24.1193C75.3444 24.1193 74.6597 23.9418 74.0546 23.5866C73.4524 23.2287 72.9751 22.7159 72.6228 22.0483C72.2734 21.3778 72.0987 20.5739 72.0987 19.6364C72.0987 18.696 72.2734 17.892 72.6228 17.2244C72.9751 16.554 73.4524 16.0412 74.0546 15.6861C74.6597 15.331 75.3444 15.1534 76.1086 15.1534C76.8728 15.1534 77.556 15.331 78.1583 15.6861C78.7634 16.0412 79.2407 16.554 79.5901 17.2244C79.9424 17.892 80.1185 18.696 80.1185 19.6364ZM78.5291 19.6364C78.5291 18.9744 78.4254 18.4162 78.218 17.9616C78.0134 17.5043 77.7293 17.1591 77.3657 16.9261C77.0021 16.6903 76.583 16.5724 76.1086 16.5724C75.6342 16.5724 75.2151 16.6903 74.8515 16.9261C74.4879 17.1591 74.2024 17.5043 73.995 17.9616C73.7904 18.4162 73.6881 18.9744 73.6881 19.6364C73.6881 20.2983 73.7904 20.858 73.995 21.3153C74.2024 21.7699 74.4879 22.1151 74.8515 22.3509C75.2151 22.5838 75.6342 22.7003 76.1086 22.7003C76.583 22.7003 77.0021 22.5838 77.3657 22.3509C77.7293 22.1151 78.0134 21.7699 78.218 21.3153C78.4254 20.858 78.5291 20.2983 78.5291 19.6364ZM81.8532 24V15.2727H83.4342V22.6747H87.2779V24H81.8532ZM94.3915 15.2727H95.9725V20.9744C95.9725 21.5994 95.8248 22.1491 95.5293 22.6236C95.2367 23.098 94.8248 23.4687 94.2935 23.7358C93.7623 24 93.1415 24.1321 92.4313 24.1321C91.7182 24.1321 91.0961 24 90.5648 23.7358C90.0336 23.4687 89.6216 23.098 89.329 22.6236C89.0364 22.1491 88.8901 21.5994 88.8901 20.9744V15.2727H90.4711V20.8423C90.4711 21.206 90.5506 21.5298 90.7097 21.8139C90.8716 22.098 91.0989 22.321 91.3915 22.483C91.6841 22.642 92.0307 22.7216 92.4313 22.7216C92.8319 22.7216 93.1784 22.642 93.4711 22.483C93.7665 22.321 93.9938 22.098 94.1529 21.8139C94.312 21.5298 94.3915 21.206 94.3915 20.8423V15.2727ZM102.674 17.6719C102.634 17.2997 102.466 17.0099 102.171 16.8026C101.878 16.5952 101.498 16.4915 101.029 16.4915C100.699 16.4915 100.417 16.5412 100.181 16.6406C99.9451 16.7401 99.7647 16.875 99.6397 17.0455C99.5147 17.2159 99.4508 17.4105 99.4479 17.6293C99.4479 17.8111 99.4891 17.9687 99.5715 18.1023C99.6567 18.2358 99.7718 18.3494 99.9167 18.4432C100.062 18.5341 100.222 18.6108 100.398 18.6733C100.574 18.7358 100.752 18.7884 100.931 18.831L101.749 19.0355C102.079 19.1122 102.395 19.2159 102.699 19.3466C103.006 19.4773 103.28 19.642 103.522 19.8409C103.766 20.0398 103.959 20.2798 104.101 20.5611C104.243 20.8423 104.314 21.1719 104.314 21.5497C104.314 22.0611 104.184 22.5114 103.922 22.9006C103.661 23.2869 103.283 23.5895 102.789 23.8082C102.297 24.0241 101.702 24.1321 101.003 24.1321C100.324 24.1321 99.7348 24.027 99.2348 23.8168C98.7377 23.6065 98.3485 23.2997 98.0672 22.8963C97.7888 22.4929 97.6383 22.0014 97.6155 21.4219H99.1709C99.1937 21.7259 99.2874 21.9787 99.4522 22.1804C99.617 22.3821 99.8314 22.5327 100.096 22.6321C100.363 22.7315 100.661 22.7812 100.991 22.7812C101.334 22.7812 101.635 22.7301 101.894 22.6278C102.155 22.5227 102.36 22.3778 102.508 22.1932C102.655 22.0057 102.731 21.7869 102.733 21.5369C102.731 21.3097 102.664 21.1222 102.533 20.9744C102.402 20.8239 102.219 20.6989 101.983 20.5994C101.75 20.4972 101.478 20.4062 101.165 20.3267L100.172 20.071C99.4536 19.8864 98.8854 19.6065 98.4678 19.2315C98.053 18.8537 97.8456 18.3523 97.8456 17.7273C97.8456 17.2131 97.9848 16.7628 98.2633 16.3764C98.5445 15.9901 98.9266 15.6903 99.4096 15.4773C99.8925 15.2614 100.439 15.1534 101.05 15.1534C101.67 15.1534 102.212 15.2614 102.678 15.4773C103.147 15.6903 103.515 15.9872 103.782 16.3679C104.049 16.7457 104.187 17.1804 104.195 17.6719H102.674ZM108.921 24H105.964V15.2727H108.981C109.847 15.2727 110.592 15.4474 111.214 15.7969C111.839 16.1435 112.319 16.642 112.654 17.2926C112.989 17.9432 113.157 18.7216 113.157 19.6278C113.157 20.5369 112.988 21.3182 112.65 21.9716C112.315 22.625 111.83 23.1264 111.197 23.4759C110.566 23.8253 109.808 24 108.921 24ZM107.545 22.6321H108.845C109.452 22.6321 109.96 22.5213 110.366 22.2997C110.772 22.0753 111.077 21.7415 111.282 21.2983C111.487 20.8523 111.589 20.2955 111.589 19.6278C111.589 18.9602 111.487 18.4062 111.282 17.9659C111.077 17.5227 110.775 17.1918 110.374 16.973C109.977 16.7514 109.482 16.6406 108.891 16.6406H107.545V22.6321ZM114.129 16.598V15.2727H121.092V16.598H118.395V24H116.826V16.598H114.129Z" fill="url(#paint2_linear_144_9519)"/>
<path d="M66.0458 37.7216V33.0341H66.8412V37.7216H66.0458ZM64.0998 35.7756V34.9801H68.7873V35.7756H64.0998ZM72.8495 31.7273V39H71.9688V32.6506H71.9262L70.1506 33.8295V32.9347L71.9688 31.7273H72.8495ZM74.7411 39V38.3608L77.1417 35.733C77.4234 35.4252 77.6554 35.1577 77.8377 34.9304C78.02 34.7008 78.1549 34.4853 78.2425 34.2841C78.3325 34.0805 78.3775 33.8674 78.3775 33.6449C78.3775 33.3892 78.3159 33.1679 78.1928 32.9808C78.0721 32.7938 77.9064 32.6494 77.6957 32.5476C77.485 32.4458 77.2482 32.3949 76.9854 32.3949C76.7061 32.3949 76.4622 32.4529 76.2539 32.5689C76.0479 32.6825 75.8881 32.8423 75.7745 33.0483C75.6632 33.2543 75.6076 33.4957 75.6076 33.7727H74.7695C74.7695 33.3466 74.8678 32.9725 75.0643 32.6506C75.2608 32.3286 75.5283 32.0777 75.8668 31.8977C76.2077 31.7178 76.5901 31.6278 77.0138 31.6278C77.44 31.6278 77.8176 31.7178 78.1467 31.8977C78.4757 32.0777 78.7338 32.3203 78.9208 32.6257C79.1078 32.9311 79.2013 33.2708 79.2013 33.6449C79.2013 33.9124 79.1528 34.174 79.0558 34.4297C78.9611 34.683 78.7953 34.9659 78.5586 35.2784C78.3242 35.5885 77.9987 35.9673 77.582 36.4148L75.9485 38.1619V38.2188H79.3292V39H74.7411ZM82.8685 39.0994C82.4519 39.0994 82.0766 39.0166 81.7428 38.8509C81.409 38.6851 81.1415 38.4579 80.9403 38.169C80.739 37.8802 80.629 37.5511 80.61 37.1818H81.4623C81.4954 37.5109 81.6446 37.7831 81.9097 37.9986C82.1772 38.2116 82.4969 38.3182 82.8685 38.3182C83.1668 38.3182 83.432 38.2483 83.664 38.1087C83.8984 37.969 84.0818 37.7772 84.2144 37.5334C84.3494 37.2872 84.4168 37.009 84.4168 36.6989C84.4168 36.3816 84.347 36.0987 84.2073 35.8501C84.07 35.5992 83.8806 35.4015 83.6391 35.2571C83.3977 35.1127 83.1219 35.0393 82.8117 35.0369C82.5892 35.0346 82.3607 35.0689 82.1263 35.1399C81.892 35.2086 81.699 35.2973 81.5475 35.4062L80.7236 35.3068L81.164 31.7273H84.9424V32.5085H81.9026L81.6469 34.6534H81.6896C81.8387 34.535 82.0257 34.4368 82.2506 34.3587C82.4755 34.2805 82.7099 34.2415 82.9538 34.2415C83.3988 34.2415 83.7954 34.348 84.1434 34.5611C84.4938 34.7718 84.7684 35.0606 84.9673 35.4276C85.1685 35.7945 85.2691 36.2135 85.2691 36.6847C85.2691 37.1487 85.1649 37.563 84.9566 37.9276C84.7506 38.2898 84.4665 38.5762 84.1043 38.7869C83.7421 38.9953 83.3302 39.0994 82.8685 39.0994ZM90.1872 37.6364V37.2528C90.1872 36.9877 90.2416 36.745 90.3505 36.5249C90.4618 36.3023 90.6228 36.1248 90.8335 35.9922C91.0466 35.8572 91.3046 35.7898 91.6076 35.7898C91.9154 35.7898 92.1735 35.8572 92.3818 35.9922C92.5901 36.1248 92.7476 36.3023 92.8541 36.5249C92.9606 36.745 93.0139 36.9877 93.0139 37.2528V37.6364C93.0139 37.9015 92.9594 38.1454 92.8505 38.3679C92.744 38.5881 92.5854 38.7656 92.3747 38.9006C92.1663 39.0331 91.9107 39.0994 91.6076 39.0994C91.2999 39.0994 91.0406 39.0331 90.8299 38.9006C90.6192 38.7656 90.4594 38.5881 90.3505 38.3679C90.2416 38.1454 90.1872 37.9015 90.1872 37.6364ZM90.9116 37.2528V37.6364C90.9116 37.8565 90.9637 38.0542 91.0679 38.2294C91.172 38.4022 91.352 38.4886 91.6076 38.4886C91.8562 38.4886 92.0314 38.4022 92.1332 38.2294C92.2374 38.0542 92.2895 37.8565 92.2895 37.6364V37.2528C92.2895 37.0327 92.2397 36.8362 92.1403 36.6634C92.0409 36.4882 91.8633 36.4006 91.6076 36.4006C91.3591 36.4006 91.1803 36.4882 91.0714 36.6634C90.9649 36.8362 90.9116 37.0327 90.9116 37.2528ZM86.565 33.4744V33.0909C86.565 32.8258 86.6195 32.5831 86.7284 32.3629C86.8396 32.1404 87.0006 31.9628 87.2113 31.8303C87.4244 31.6953 87.6824 31.6278 87.9855 31.6278C88.2932 31.6278 88.5513 31.6953 88.7596 31.8303C88.968 31.9628 89.1254 32.1404 89.2319 32.3629C89.3385 32.5831 89.3917 32.8258 89.3917 33.0909V33.4744C89.3917 33.7396 89.3373 33.9834 89.2284 34.206C89.1218 34.4261 88.9632 34.6037 88.7525 34.7386C88.5442 34.8712 88.2885 34.9375 87.9855 34.9375C87.6777 34.9375 87.4185 34.8712 87.2078 34.7386C86.9971 34.6037 86.8373 34.4261 86.7284 34.206C86.6195 33.9834 86.565 33.7396 86.565 33.4744ZM87.2895 33.0909V33.4744C87.2895 33.6946 87.3415 33.8923 87.4457 34.0675C87.5499 34.2403 87.7298 34.3267 87.9855 34.3267C88.2341 34.3267 88.4092 34.2403 88.511 34.0675C88.6152 33.8923 88.6673 33.6946 88.6673 33.4744V33.0909C88.6673 32.8707 88.6176 32.6742 88.5181 32.5014C88.4187 32.3262 88.2412 32.2386 87.9855 32.2386C87.7369 32.2386 87.5582 32.3262 87.4493 32.5014C87.3427 32.6742 87.2895 32.8707 87.2895 33.0909ZM86.8349 39L91.8349 31.7273H92.6446L87.6446 39H86.8349Z" fill="url(#paint3_linear_144_9519)"/>
<path d="M53 70L62.047 65.7146C62.3321 65.5795 62.6642 65.5869 62.943 65.7345L70.3889 69.6765C70.7566 69.8712 71.2065 69.8178 71.5184 69.5425L78.7956 63.1216C79.1915 62.7722 79.7909 62.7909 80.1643 63.1643L81.8333 64.8333C82.2077 65.2077 82.809 65.2253 83.2047 64.8736L90.9037 58.0301C91.2525 57.72 91.7695 57.6925 92.1493 57.9638L97.7294 61.9496C98.1616 62.2583 98.7598 62.1753 99.0915 61.7606L101.47 58.7877C101.939 58.2014 102.863 58.3218 103.166 59.0088L109.003 72.2396C109.366 73.0618 110.544 73.0254 110.856 72.1823L121.161 44.271C121.47 43.4343 122.637 43.39 123.009 44.2007L126.63 52.1022C126.98 52.8655 128.058 52.8838 128.434 52.1327L129.38 50.241C129.685 49.6305 130.498 49.4984 130.981 49.9811L132.083 51.0827C132.546 51.5464 133.323 51.4459 133.654 50.8795L135.693 47.3838C136.065 46.745 136.978 46.7177 137.389 47.3329L138.5 49L149.467 63.4675C149.863 63.9896 150.646 63.9964 151.05 63.4812L152.608 61.4994C152.847 61.1946 153.241 61.0556 153.619 61.1428L159.5 62.5" stroke="url(#paint4_linear_144_9519)"/>
<circle cx="122" cy="43" r="3" fill="#FF7000"/>
</g>
<rect x="52.5" y="3.5" width="108" height="93" rx="3.5" stroke="url(#paint5_linear_144_9519)"/>
<rect x="52.5" y="3.5" width="108" height="93" rx="3.5" stroke="black" stroke-opacity="0.2"/>
<line x1="12" y1="98.5" x2="93" y2="98.5" stroke="url(#paint6_linear_144_9519)"/>
<line x1="60" y1="100.5" x2="141" y2="100.5" stroke="url(#paint7_linear_144_9519)"/>
<line x1="136" y1="86.5" x2="217" y2="86.5" stroke="url(#paint8_linear_144_9519)"/>
<g filter="url(#filter0_d_144_9519)">
<g clip-path="url(#clip1_144_9519)">
<rect x="42" y="11" width="109" height="94" rx="4" fill="#1E1E1E"/>
<rect x="42" y="11" width="109" height="94" rx="4" fill="url(#paint9_linear_144_9519)" fill-opacity="0.2"/>
<rect x="42" y="11" width="109" height="94" rx="4" fill="black" fill-opacity="0.2"/>
<path d="M52.047 73.7146L43.5719 77.7291C43.2227 77.8945 43 78.2464 43 78.6328V104.5C43 105.052 43.4477 105.5 44 105.5H150C150.552 105.5 151 105.052 151 104.5V77.618C151 76.8747 150.218 76.3912 149.553 76.7236L144.834 79.0831C144.364 79.3179 143.793 79.1495 143.526 78.6974L137.5 68.5L128.5 57L127.389 55.3329C126.978 54.7177 126.065 54.745 125.693 55.3838L123.654 58.8795C123.323 59.4459 122.546 59.5464 122.083 59.0827L120.981 57.9811C120.498 57.4984 119.685 57.6305 119.38 58.241L118.434 60.1327C118.058 60.8838 116.98 60.8655 116.63 60.1022L113.009 52.2007C112.637 51.39 111.47 51.4343 111.161 52.271L100.856 80.1823C100.544 81.0254 99.3655 81.0618 99.0028 80.2396L93.1656 67.0088C92.8626 66.3218 91.9389 66.2014 91.4698 66.7877L89.0915 69.7606C88.7598 70.1753 88.1616 70.2583 87.7294 69.9496L82.1493 65.9638C81.7695 65.6925 81.2525 65.72 80.9037 66.0301L73.2047 72.8736C72.809 73.2253 72.2077 73.2077 71.8333 72.8333L70.1643 71.1643C69.7909 70.7909 69.1915 70.7722 68.7956 71.1216L61.5184 77.5425C61.2065 77.8178 60.7566 77.8712 60.3889 77.6765L52.943 73.7345C52.6642 73.5869 52.3321 73.5795 52.047 73.7146Z" fill="url(#paint10_radial_144_9519)" fill-opacity="0.5"/>
<path d="M59.0302 25.6719C58.9904 25.2997 58.8228 25.0099 58.5273 24.8026C58.2347 24.5952 57.854 24.4915 57.3853 24.4915C57.0557 24.4915 56.7731 24.5412 56.5373 24.6406C56.3015 24.7401 56.1211 24.875 55.9961 25.0455C55.8711 25.2159 55.8072 25.4105 55.8043 25.6293C55.8043 25.8111 55.8455 25.9687 55.9279 26.1023C56.0131 26.2358 56.1282 26.3494 56.2731 26.4432C56.418 26.5341 56.5785 26.6108 56.7546 26.6733C56.9307 26.7358 57.1083 26.7884 57.2873 26.831L58.1055 27.0355C58.435 27.1122 58.7518 27.2159 59.0557 27.3466C59.3626 27.4773 59.6367 27.642 59.8782 27.8409C60.1225 28.0398 60.3157 28.2798 60.4577 28.5611C60.5998 28.8423 60.6708 29.1719 60.6708 29.5497C60.6708 30.0611 60.5401 30.5114 60.2788 30.9006C60.0174 31.2869 59.6396 31.5895 59.1452 31.8082C58.6538 32.0241 58.0586 32.1321 57.3597 32.1321C56.6807 32.1321 56.0913 32.027 55.5913 31.8168C55.0941 31.6065 54.7049 31.2997 54.4236 30.8963C54.1452 30.4929 53.9947 30.0014 53.9719 29.4219H55.5273C55.5501 29.7259 55.6438 29.9787 55.8086 30.1804C55.9734 30.3821 56.1878 30.5327 56.4521 30.6321C56.7191 30.7315 57.0174 30.7812 57.3469 30.7812C57.6907 30.7812 57.9918 30.7301 58.2503 30.6278C58.5117 30.5227 58.7163 30.3778 58.864 30.1932C59.0117 30.0057 59.087 29.7869 59.0898 29.5369C59.087 29.3097 59.0202 29.1222 58.8896 28.9744C58.7589 28.8239 58.5756 28.6989 58.3398 28.5994C58.1069 28.4972 57.8342 28.4062 57.5217 28.3267L56.5288 28.071C55.81 27.8864 55.2418 27.6065 54.8242 27.2315C54.4094 26.8537 54.2021 26.3523 54.2021 25.7273C54.2021 25.2131 54.3413 24.7628 54.6197 24.3764C54.9009 23.9901 55.283 23.6903 55.766 23.4773C56.2489 23.2614 56.7958 23.1534 57.4066 23.1534C58.0259 23.1534 58.5685 23.2614 59.0344 23.4773C59.5032 23.6903 59.8711 23.9872 60.1381 24.3679C60.4052 24.7457 60.543 25.1804 60.5515 25.6719H59.0302ZM70.1185 27.6364C70.1185 28.5767 69.9424 29.3821 69.5901 30.0526C69.2407 30.7202 68.7634 31.2315 68.1583 31.5866C67.556 31.9418 66.8728 32.1193 66.1086 32.1193C65.3444 32.1193 64.6597 31.9418 64.0546 31.5866C63.4524 31.2287 62.9751 30.7159 62.6228 30.0483C62.2734 29.3778 62.0987 28.5739 62.0987 27.6364C62.0987 26.696 62.2734 25.892 62.6228 25.2244C62.9751 24.554 63.4524 24.0412 64.0546 23.6861C64.6597 23.331 65.3444 23.1534 66.1086 23.1534C66.8728 23.1534 67.556 23.331 68.1583 23.6861C68.7634 24.0412 69.2407 24.554 69.5901 25.2244C69.9424 25.892 70.1185 26.696 70.1185 27.6364ZM68.5291 27.6364C68.5291 26.9744 68.4254 26.4162 68.218 25.9616C68.0134 25.5043 67.7293 25.1591 67.3657 24.9261C67.0021 24.6903 66.583 24.5724 66.1086 24.5724C65.6342 24.5724 65.2151 24.6903 64.8515 24.9261C64.4879 25.1591 64.2024 25.5043 63.995 25.9616C63.7904 26.4162 63.6881 26.9744 63.6881 27.6364C63.6881 28.2983 63.7904 28.858 63.995 29.3153C64.2024 29.7699 64.4879 30.1151 64.8515 30.3509C65.2151 30.5838 65.6342 30.7003 66.1086 30.7003C66.583 30.7003 67.0021 30.5838 67.3657 30.3509C67.7293 30.1151 68.0134 29.7699 68.218 29.3153C68.4254 28.858 68.5291 28.2983 68.5291 27.6364ZM71.8532 32V23.2727H73.4342V30.6747H77.2779V32H71.8532ZM84.3915 23.2727H85.9725V28.9744C85.9725 29.5994 85.8248 30.1491 85.5293 30.6236C85.2367 31.098 84.8248 31.4687 84.2935 31.7358C83.7623 32 83.1415 32.1321 82.4313 32.1321C81.7182 32.1321 81.0961 32 80.5648 31.7358C80.0336 31.4687 79.6216 31.098 79.329 30.6236C79.0364 30.1491 78.8901 29.5994 78.8901 28.9744V23.2727H80.4711V28.8423C80.4711 29.206 80.5506 29.5298 80.7097 29.8139C80.8716 30.098 81.0989 30.321 81.3915 30.483C81.6841 30.642 82.0307 30.7216 82.4313 30.7216C82.8319 30.7216 83.1784 30.642 83.4711 30.483C83.7665 30.321 83.9938 30.098 84.1529 29.8139C84.312 29.5298 84.3915 29.206 84.3915 28.8423V23.2727ZM92.6738 25.6719C92.634 25.2997 92.4664 25.0099 92.1709 24.8026C91.8783 24.5952 91.4976 24.4915 91.0289 24.4915C90.6993 24.4915 90.4167 24.5412 90.1809 24.6406C89.9451 24.7401 89.7647 24.875 89.6397 25.0455C89.5147 25.2159 89.4508 25.4105 89.4479 25.6293C89.4479 25.8111 89.4891 25.9687 89.5715 26.1023C89.6567 26.2358 89.7718 26.3494 89.9167 26.4432C90.0616 26.5341 90.2221 26.6108 90.3982 26.6733C90.5743 26.7358 90.7519 26.7884 90.9309 26.831L91.7491 27.0355C92.0786 27.1122 92.3954 27.2159 92.6993 27.3466C93.0062 27.4773 93.2803 27.642 93.5218 27.8409C93.7661 28.0398 93.9593 28.2798 94.1013 28.5611C94.2434 28.8423 94.3144 29.1719 94.3144 29.5497C94.3144 30.0611 94.1837 30.5114 93.9223 30.9006C93.661 31.2869 93.2831 31.5895 92.7888 31.8082C92.2973 32.0241 91.7022 32.1321 91.0033 32.1321C90.3243 32.1321 89.7348 32.027 89.2348 31.8168C88.7377 31.6065 88.3485 31.2997 88.0672 30.8963C87.7888 30.4929 87.6383 30.0014 87.6155 29.4219H89.1709C89.1937 29.7259 89.2874 29.9787 89.4522 30.1804C89.617 30.3821 89.8314 30.5327 90.0956 30.6321C90.3627 30.7315 90.661 30.7812 90.9905 30.7812C91.3343 30.7812 91.6354 30.7301 91.8939 30.6278C92.1553 30.5227 92.3598 30.3778 92.5076 30.1932C92.6553 30.0057 92.7306 29.7869 92.7334 29.5369C92.7306 29.3097 92.6638 29.1222 92.5331 28.9744C92.4025 28.8239 92.2192 28.6989 91.9834 28.5994C91.7505 28.4972 91.4777 28.4062 91.1652 28.3267L90.1723 28.071C89.4536 27.8864 88.8854 27.6065 88.4678 27.2315C88.053 26.8537 87.8456 26.3523 87.8456 25.7273C87.8456 25.2131 87.9848 24.7628 88.2633 24.3764C88.5445 23.9901 88.9266 23.6903 89.4096 23.4773C89.8925 23.2614 90.4394 23.1534 91.0502 23.1534C91.6695 23.1534 92.2121 23.2614 92.678 23.4773C93.1468 23.6903 93.5147 23.9872 93.7817 24.3679C94.0488 24.7457 94.1866 25.1804 94.1951 25.6719H92.6738ZM98.9212 32H95.9638V23.2727H98.9809C99.8474 23.2727 100.592 23.4474 101.214 23.7969C101.839 24.1435 102.319 24.642 102.654 25.2926C102.989 25.9432 103.157 26.7216 103.157 27.6278C103.157 28.5369 102.988 29.3182 102.65 29.9716C102.315 30.625 101.83 31.1264 101.197 31.4759C100.566 31.8253 99.8076 32 98.9212 32ZM97.5448 30.6321H98.8445C99.4525 30.6321 99.9596 30.5213 100.366 30.2997C100.772 30.0753 101.077 29.7415 101.282 29.2983C101.487 28.8523 101.589 28.2955 101.589 27.6278C101.589 26.9602 101.487 26.4062 101.282 25.9659C101.077 25.5227 100.775 25.1918 100.374 24.973C99.9766 24.7514 99.4823 24.6406 98.8914 24.6406H97.5448V30.6321ZM104.129 24.598V23.2727H111.092V24.598H108.395V32H106.826V24.598H104.129Z" fill="url(#paint11_linear_144_9519)"/>
<path d="M56.0458 45.7216V41.0341H56.8412V45.7216H56.0458ZM54.0998 43.7756V42.9801H58.7873V43.7756H54.0998ZM62.8495 39.7273V47H61.9688V40.6506H61.9262L60.1506 41.8295V40.9347L61.9688 39.7273H62.8495ZM64.7411 47V46.3608L67.1417 43.733C67.4234 43.4252 67.6554 43.1577 67.8377 42.9304C68.02 42.7008 68.1549 42.4853 68.2425 42.2841C68.3325 42.0805 68.3775 41.8674 68.3775 41.6449C68.3775 41.3892 68.3159 41.1679 68.1928 40.9808C68.0721 40.7938 67.9064 40.6494 67.6957 40.5476C67.485 40.4458 67.2482 40.3949 66.9854 40.3949C66.7061 40.3949 66.4622 40.4529 66.2539 40.5689C66.0479 40.6825 65.8881 40.8423 65.7745 41.0483C65.6632 41.2543 65.6076 41.4957 65.6076 41.7727H64.7695C64.7695 41.3466 64.8678 40.9725 65.0643 40.6506C65.2608 40.3286 65.5283 40.0777 65.8668 39.8977C66.2077 39.7178 66.5901 39.6278 67.0138 39.6278C67.44 39.6278 67.8176 39.7178 68.1467 39.8977C68.4757 40.0777 68.7338 40.3203 68.9208 40.6257C69.1078 40.9311 69.2013 41.2708 69.2013 41.6449C69.2013 41.9124 69.1528 42.174 69.0558 42.4297C68.9611 42.683 68.7953 42.9659 68.5586 43.2784C68.3242 43.5885 67.9987 43.9673 67.582 44.4148L65.9485 46.1619V46.2188H69.3292V47H64.7411ZM72.8685 47.0994C72.4519 47.0994 72.0766 47.0166 71.7428 46.8509C71.409 46.6851 71.1415 46.4579 70.9403 46.169C70.739 45.8802 70.629 45.5511 70.61 45.1818H71.4623C71.4954 45.5109 71.6446 45.7831 71.9097 45.9986C72.1772 46.2116 72.4969 46.3182 72.8685 46.3182C73.1668 46.3182 73.432 46.2483 73.664 46.1087C73.8984 45.969 74.0818 45.7772 74.2144 45.5334C74.3494 45.2872 74.4168 45.009 74.4168 44.6989C74.4168 44.3816 74.347 44.0987 74.2073 43.8501C74.07 43.5992 73.8806 43.4015 73.6391 43.2571C73.3977 43.1127 73.1219 43.0393 72.8117 43.0369C72.5892 43.0346 72.3607 43.0689 72.1263 43.1399C71.892 43.2086 71.699 43.2973 71.5475 43.4062L70.7236 43.3068L71.164 39.7273H74.9424V40.5085H71.9026L71.6469 42.6534H71.6896C71.8387 42.535 72.0257 42.4368 72.2506 42.3587C72.4755 42.2805 72.7099 42.2415 72.9538 42.2415C73.3988 42.2415 73.7954 42.348 74.1434 42.5611C74.4938 42.7718 74.7684 43.0606 74.9673 43.4276C75.1685 43.7945 75.2691 44.2135 75.2691 44.6847C75.2691 45.1487 75.1649 45.563 74.9566 45.9276C74.7506 46.2898 74.4665 46.5762 74.1043 46.7869C73.7421 46.9953 73.3302 47.0994 72.8685 47.0994ZM80.1872 45.6364V45.2528C80.1872 44.9877 80.2416 44.745 80.3505 44.5249C80.4618 44.3023 80.6228 44.1248 80.8335 43.9922C81.0466 43.8572 81.3046 43.7898 81.6076 43.7898C81.9154 43.7898 82.1735 43.8572 82.3818 43.9922C82.5901 44.1248 82.7476 44.3023 82.8541 44.5249C82.9606 44.745 83.0139 44.9877 83.0139 45.2528V45.6364C83.0139 45.9015 82.9594 46.1454 82.8505 46.3679C82.744 46.5881 82.5854 46.7656 82.3747 46.9006C82.1663 47.0331 81.9107 47.0994 81.6076 47.0994C81.2999 47.0994 81.0406 47.0331 80.8299 46.9006C80.6192 46.7656 80.4594 46.5881 80.3505 46.3679C80.2416 46.1454 80.1872 45.9015 80.1872 45.6364ZM80.9116 45.2528V45.6364C80.9116 45.8565 80.9637 46.0542 81.0679 46.2294C81.172 46.4022 81.352 46.4886 81.6076 46.4886C81.8562 46.4886 82.0314 46.4022 82.1332 46.2294C82.2374 46.0542 82.2895 45.8565 82.2895 45.6364V45.2528C82.2895 45.0327 82.2397 44.8362 82.1403 44.6634C82.0409 44.4882 81.8633 44.4006 81.6076 44.4006C81.3591 44.4006 81.1803 44.4882 81.0714 44.6634C80.9649 44.8362 80.9116 45.0327 80.9116 45.2528ZM76.565 41.4744V41.0909C76.565 40.8258 76.6195 40.5831 76.7284 40.3629C76.8396 40.1404 77.0006 39.9628 77.2113 39.8303C77.4244 39.6953 77.6824 39.6278 77.9855 39.6278C78.2932 39.6278 78.5513 39.6953 78.7596 39.8303C78.968 39.9628 79.1254 40.1404 79.2319 40.3629C79.3385 40.5831 79.3917 40.8258 79.3917 41.0909V41.4744C79.3917 41.7396 79.3373 41.9834 79.2284 42.206C79.1218 42.4261 78.9632 42.6037 78.7525 42.7386C78.5442 42.8712 78.2885 42.9375 77.9855 42.9375C77.6777 42.9375 77.4185 42.8712 77.2078 42.7386C76.9971 42.6037 76.8373 42.4261 76.7284 42.206C76.6195 41.9834 76.565 41.7396 76.565 41.4744ZM77.2895 41.0909V41.4744C77.2895 41.6946 77.3415 41.8923 77.4457 42.0675C77.5499 42.2403 77.7298 42.3267 77.9855 42.3267C78.2341 42.3267 78.4092 42.2403 78.511 42.0675C78.6152 41.8923 78.6673 41.6946 78.6673 41.4744V41.0909C78.6673 40.8707 78.6176 40.6742 78.5181 40.5014C78.4187 40.3262 78.2412 40.2386 77.9855 40.2386C77.7369 40.2386 77.5582 40.3262 77.4493 40.5014C77.3427 40.6742 77.2895 40.8707 77.2895 41.0909ZM76.8349 47L81.8349 39.7273H82.6446L77.6446 47H76.8349Z" fill="url(#paint12_linear_144_9519)"/>
<path d="M43 78L52.047 73.7146C52.3321 73.5795 52.6642 73.5869 52.943 73.7345L60.3889 77.6765C60.7566 77.8712 61.2065 77.8178 61.5184 77.5425L68.7956 71.1216C69.1915 70.7722 69.7909 70.7909 70.1643 71.1643L71.8333 72.8333C72.2077 73.2077 72.809 73.2253 73.2047 72.8736L80.9037 66.0301C81.2525 65.72 81.7695 65.6925 82.1493 65.9638L87.7294 69.9496C88.1616 70.2583 88.7598 70.1753 89.0915 69.7606L91.4698 66.7877C91.9389 66.2014 92.8626 66.3218 93.1656 67.0088L99.0028 80.2396C99.3655 81.0618 100.544 81.0254 100.856 80.1823L111.161 52.271C111.47 51.4343 112.637 51.39 113.009 52.2007L116.63 60.1022C116.98 60.8655 118.058 60.8838 118.434 60.1327L119.38 58.241C119.685 57.6305 120.498 57.4984 120.981 57.9811L122.083 59.0827C122.546 59.5464 123.323 59.4459 123.654 58.8795L125.693 55.3838C126.065 54.745 126.978 54.7177 127.389 55.3329L128.5 57L140.17 72.3947C140.223 72.4646 140.267 72.5412 140.3 72.6224L143.139 79.6124C143.341 80.1086 143.898 80.3579 144.402 80.1778L150.5 78" stroke="url(#paint13_linear_144_9519)"/>
<circle cx="112" cy="51" r="3" fill="#FF7000"/>
</g>
<rect x="42.5" y="11.5" width="108" height="93" rx="3.5" stroke="url(#paint14_linear_144_9519)"/>
<rect x="42.5" y="11.5" width="108" height="93" rx="3.5" stroke="black" stroke-opacity="0.2"/>
</g>
<line x1="185" y1="74.5" x2="266" y2="74.5" stroke="url(#paint15_linear_144_9519)"/>
<g filter="url(#filter1_d_144_9519)">
<g clip-path="url(#clip2_144_9519)">
<rect x="29" y="20" width="109" height="94" rx="4" fill="white"/>
<rect x="29" y="20" width="109" height="94" rx="4" fill="#1E1E1E"/>
<rect x="29" y="20" width="109" height="94" rx="4" fill="url(#paint16_linear_144_9519)" fill-opacity="0.2"/>
<path d="M46.0302 34.6719C45.9904 34.2997 45.8228 34.0099 45.5273 33.8026C45.2347 33.5952 44.854 33.4915 44.3853 33.4915C44.0557 33.4915 43.7731 33.5412 43.5373 33.6406C43.3015 33.7401 43.1211 33.875 42.9961 34.0455C42.8711 34.2159 42.8072 34.4105 42.8043 34.6293C42.8043 34.8111 42.8455 34.9687 42.9279 35.1023C43.0131 35.2358 43.1282 35.3494 43.2731 35.4432C43.418 35.5341 43.5785 35.6108 43.7546 35.6733C43.9307 35.7358 44.1083 35.7884 44.2873 35.831L45.1055 36.0355C45.435 36.1122 45.7518 36.2159 46.0557 36.3466C46.3626 36.4773 46.6367 36.642 46.8782 36.8409C47.1225 37.0398 47.3157 37.2798 47.4577 37.5611C47.5998 37.8423 47.6708 38.1719 47.6708 38.5497C47.6708 39.0611 47.5401 39.5114 47.2788 39.9006C47.0174 40.2869 46.6396 40.5895 46.1452 40.8082C45.6538 41.0241 45.0586 41.1321 44.3597 41.1321C43.6807 41.1321 43.0913 41.027 42.5913 40.8168C42.0941 40.6065 41.7049 40.2997 41.4236 39.8963C41.1452 39.4929 40.9947 39.0014 40.9719 38.4219H42.5273C42.5501 38.7259 42.6438 38.9787 42.8086 39.1804C42.9734 39.3821 43.1878 39.5327 43.4521 39.6321C43.7191 39.7315 44.0174 39.7812 44.3469 39.7812C44.6907 39.7812 44.9918 39.7301 45.2503 39.6278C45.5117 39.5227 45.7163 39.3778 45.864 39.1932C46.0117 39.0057 46.087 38.7869 46.0898 38.5369C46.087 38.3097 46.0202 38.1222 45.8896 37.9744C45.7589 37.8239 45.5756 37.6989 45.3398 37.5994C45.1069 37.4972 44.8342 37.4062 44.5217 37.3267L43.5288 37.071C42.81 36.8864 42.2418 36.6065 41.8242 36.2315C41.4094 35.8537 41.2021 35.3523 41.2021 34.7273C41.2021 34.2131 41.3413 33.7628 41.6197 33.3764C41.9009 32.9901 42.283 32.6903 42.766 32.4773C43.2489 32.2614 43.7958 32.1534 44.4066 32.1534C45.0259 32.1534 45.5685 32.2614 46.0344 32.4773C46.5032 32.6903 46.8711 32.9872 47.1381 33.3679C47.4052 33.7457 47.543 34.1804 47.5515 34.6719H46.0302ZM57.1185 36.6364C57.1185 37.5767 56.9424 38.3821 56.5901 39.0526C56.2407 39.7202 55.7634 40.2315 55.1583 40.5866C54.556 40.9418 53.8728 41.1193 53.1086 41.1193C52.3444 41.1193 51.6597 40.9418 51.0546 40.5866C50.4524 40.2287 49.9751 39.7159 49.6228 39.0483C49.2734 38.3778 49.0987 37.5739 49.0987 36.6364C49.0987 35.696 49.2734 34.892 49.6228 34.2244C49.9751 33.554 50.4524 33.0412 51.0546 32.6861C51.6597 32.331 52.3444 32.1534 53.1086 32.1534C53.8728 32.1534 54.556 32.331 55.1583 32.6861C55.7634 33.0412 56.2407 33.554 56.5901 34.2244C56.9424 34.892 57.1185 35.696 57.1185 36.6364ZM55.5291 36.6364C55.5291 35.9744 55.4254 35.4162 55.218 34.9616C55.0134 34.5043 54.7293 34.1591 54.3657 33.9261C54.0021 33.6903 53.583 33.5724 53.1086 33.5724C52.6342 33.5724 52.2151 33.6903 51.8515 33.9261C51.4879 34.1591 51.2024 34.5043 50.995 34.9616C50.7904 35.4162 50.6881 35.9744 50.6881 36.6364C50.6881 37.2983 50.7904 37.858 50.995 38.3153C51.2024 38.7699 51.4879 39.1151 51.8515 39.3509C52.2151 39.5838 52.6342 39.7003 53.1086 39.7003C53.583 39.7003 54.0021 39.5838 54.3657 39.3509C54.7293 39.1151 55.0134 38.7699 55.218 38.3153C55.4254 37.858 55.5291 37.2983 55.5291 36.6364ZM58.8532 41V32.2727H60.4342V39.6747H64.2779V41H58.8532ZM71.3915 32.2727H72.9725V37.9744C72.9725 38.5994 72.8248 39.1491 72.5293 39.6236C72.2367 40.098 71.8248 40.4687 71.2935 40.7358C70.7623 41 70.1415 41.1321 69.4313 41.1321C68.7182 41.1321 68.0961 41 67.5648 40.7358C67.0336 40.4687 66.6216 40.098 66.329 39.6236C66.0364 39.1491 65.8901 38.5994 65.8901 37.9744V32.2727H67.4711V37.8423C67.4711 38.206 67.5506 38.5298 67.7097 38.8139C67.8716 39.098 68.0989 39.321 68.3915 39.483C68.6841 39.642 69.0307 39.7216 69.4313 39.7216C69.8319 39.7216 70.1784 39.642 70.4711 39.483C70.7665 39.321 70.9938 39.098 71.1529 38.8139C71.312 38.5298 71.3915 38.206 71.3915 37.8423V32.2727ZM79.6738 34.6719C79.634 34.2997 79.4664 34.0099 79.1709 33.8026C78.8783 33.5952 78.4976 33.4915 78.0289 33.4915C77.6993 33.4915 77.4167 33.5412 77.1809 33.6406C76.9451 33.7401 76.7647 33.875 76.6397 34.0455C76.5147 34.2159 76.4508 34.4105 76.4479 34.6293C76.4479 34.8111 76.4891 34.9687 76.5715 35.1023C76.6567 35.2358 76.7718 35.3494 76.9167 35.4432C77.0616 35.5341 77.2221 35.6108 77.3982 35.6733C77.5743 35.7358 77.7519 35.7884 77.9309 35.831L78.7491 36.0355C79.0786 36.1122 79.3954 36.2159 79.6993 36.3466C80.0062 36.4773 80.2803 36.642 80.5218 36.8409C80.7661 37.0398 80.9593 37.2798 81.1013 37.5611C81.2434 37.8423 81.3144 38.1719 81.3144 38.5497C81.3144 39.0611 81.1837 39.5114 80.9223 39.9006C80.661 40.2869 80.2831 40.5895 79.7888 40.8082C79.2973 41.0241 78.7022 41.1321 78.0033 41.1321C77.3243 41.1321 76.7348 41.027 76.2348 40.8168C75.7377 40.6065 75.3485 40.2997 75.0672 39.8963C74.7888 39.4929 74.6383 39.0014 74.6155 38.4219H76.1709C76.1937 38.7259 76.2874 38.9787 76.4522 39.1804C76.617 39.3821 76.8314 39.5327 77.0956 39.6321C77.3627 39.7315 77.661 39.7812 77.9905 39.7812C78.3343 39.7812 78.6354 39.7301 78.8939 39.6278C79.1553 39.5227 79.3598 39.3778 79.5076 39.1932C79.6553 39.0057 79.7306 38.7869 79.7334 38.5369C79.7306 38.3097 79.6638 38.1222 79.5331 37.9744C79.4025 37.8239 79.2192 37.6989 78.9834 37.5994C78.7505 37.4972 78.4777 37.4062 78.1652 37.3267L77.1723 37.071C76.4536 36.8864 75.8854 36.6065 75.4678 36.2315C75.053 35.8537 74.8456 35.3523 74.8456 34.7273C74.8456 34.2131 74.9848 33.7628 75.2633 33.3764C75.5445 32.9901 75.9266 32.6903 76.4096 32.4773C76.8925 32.2614 77.4394 32.1534 78.0502 32.1534C78.6695 32.1534 79.2121 32.2614 79.678 32.4773C80.1468 32.6903 80.5147 32.9872 80.7817 33.3679C81.0488 33.7457 81.1866 34.1804 81.1951 34.6719H79.6738ZM85.9212 41H82.9638V32.2727H85.9809C86.8474 32.2727 87.5917 32.4474 88.2138 32.7969C88.8388 33.1435 89.319 33.642 89.6542 34.2926C89.9894 34.9432 90.157 35.7216 90.157 36.6278C90.157 37.5369 89.988 38.3182 89.6499 38.9716C89.3147 39.625 88.8303 40.1264 88.1968 40.4759C87.5661 40.8253 86.8076 41 85.9212 41ZM84.5448 39.6321H85.8445C86.4525 39.6321 86.9596 39.5213 87.3658 39.2997C87.7721 39.0753 88.0775 38.7415 88.282 38.2983C88.4866 37.8523 88.5888 37.2955 88.5888 36.6278C88.5888 35.9602 88.4866 35.4062 88.282 34.9659C88.0775 34.5227 87.7749 34.1918 87.3744 33.973C86.9766 33.7514 86.4823 33.6406 85.8914 33.6406H84.5448V39.6321ZM91.1289 33.598V32.2727H98.092V33.598H95.3945V41H93.8264V33.598H91.1289Z" fill="url(#paint17_linear_144_9519)"/>
<path d="M43.0458 54.7216V50.0341H43.8412V54.7216H43.0458ZM41.0998 52.7756V51.9801H45.7873V52.7756H41.0998ZM49.8495 48.7273V56H48.9688V49.6506H48.9262L47.1506 50.8295V49.9347L48.9688 48.7273H49.8495ZM51.7411 56V55.3608L54.1417 52.733C54.4234 52.4252 54.6554 52.1577 54.8377 51.9304C55.02 51.7008 55.1549 51.4853 55.2425 51.2841C55.3325 51.0805 55.3775 50.8674 55.3775 50.6449C55.3775 50.3892 55.3159 50.1679 55.1928 49.9808C55.0721 49.7938 54.9064 49.6494 54.6957 49.5476C54.485 49.4458 54.2482 49.3949 53.9854 49.3949C53.7061 49.3949 53.4622 49.4529 53.2539 49.5689C53.0479 49.6825 52.8881 49.8423 52.7745 50.0483C52.6632 50.2543 52.6076 50.4957 52.6076 50.7727H51.7695C51.7695 50.3466 51.8678 49.9725 52.0643 49.6506C52.2608 49.3286 52.5283 49.0777 52.8668 48.8977C53.2077 48.7178 53.5901 48.6278 54.0138 48.6278C54.44 48.6278 54.8176 48.7178 55.1467 48.8977C55.4757 49.0777 55.7338 49.3203 55.9208 49.6257C56.1078 49.9311 56.2013 50.2708 56.2013 50.6449C56.2013 50.9124 56.1528 51.174 56.0558 51.4297C55.9611 51.683 55.7953 51.9659 55.5586 52.2784C55.3242 52.5885 54.9987 52.9673 54.582 53.4148L52.9485 55.1619V55.2188H56.3292V56H51.7411ZM59.8685 56.0994C59.4519 56.0994 59.0766 56.0166 58.7428 55.8509C58.409 55.6851 58.1415 55.4579 57.9403 55.169C57.739 54.8802 57.629 54.5511 57.61 54.1818H58.4623C58.4954 54.5109 58.6446 54.7831 58.9097 54.9986C59.1772 55.2116 59.4969 55.3182 59.8685 55.3182C60.1668 55.3182 60.432 55.2483 60.664 55.1087C60.8984 54.969 61.0818 54.7772 61.2144 54.5334C61.3494 54.2872 61.4168 54.009 61.4168 53.6989C61.4168 53.3816 61.347 53.0987 61.2073 52.8501C61.07 52.5992 60.8806 52.4015 60.6391 52.2571C60.3977 52.1127 60.1219 52.0393 59.8117 52.0369C59.5892 52.0346 59.3607 52.0689 59.1263 52.1399C58.892 52.2086 58.699 52.2973 58.5475 52.4062L57.7236 52.3068L58.164 48.7273H61.9424V49.5085H58.9026L58.6469 51.6534H58.6896C58.8387 51.535 59.0257 51.4368 59.2506 51.3587C59.4755 51.2805 59.7099 51.2415 59.9538 51.2415C60.3988 51.2415 60.7954 51.348 61.1434 51.5611C61.4938 51.7718 61.7684 52.0606 61.9673 52.4276C62.1685 52.7945 62.2691 53.2135 62.2691 53.6847C62.2691 54.1487 62.1649 54.563 61.9566 54.9276C61.7506 55.2898 61.4665 55.5762 61.1043 55.7869C60.7421 55.9953 60.3302 56.0994 59.8685 56.0994ZM67.1872 54.6364V54.2528C67.1872 53.9877 67.2416 53.745 67.3505 53.5249C67.4618 53.3023 67.6228 53.1248 67.8335 52.9922C68.0466 52.8572 68.3046 52.7898 68.6076 52.7898C68.9154 52.7898 69.1735 52.8572 69.3818 52.9922C69.5901 53.1248 69.7476 53.3023 69.8541 53.5249C69.9606 53.745 70.0139 53.9877 70.0139 54.2528V54.6364C70.0139 54.9015 69.9594 55.1454 69.8505 55.3679C69.744 55.5881 69.5854 55.7656 69.3747 55.9006C69.1663 56.0331 68.9107 56.0994 68.6076 56.0994C68.2999 56.0994 68.0406 56.0331 67.8299 55.9006C67.6192 55.7656 67.4594 55.5881 67.3505 55.3679C67.2416 55.1454 67.1872 54.9015 67.1872 54.6364ZM67.9116 54.2528V54.6364C67.9116 54.8565 67.9637 55.0542 68.0679 55.2294C68.172 55.4022 68.352 55.4886 68.6076 55.4886C68.8562 55.4886 69.0314 55.4022 69.1332 55.2294C69.2374 55.0542 69.2895 54.8565 69.2895 54.6364V54.2528C69.2895 54.0327 69.2397 53.8362 69.1403 53.6634C69.0409 53.4882 68.8633 53.4006 68.6076 53.4006C68.3591 53.4006 68.1803 53.4882 68.0714 53.6634C67.9649 53.8362 67.9116 54.0327 67.9116 54.2528ZM63.565 50.4744V50.0909C63.565 49.8258 63.6195 49.5831 63.7284 49.3629C63.8396 49.1404 64.0006 48.9628 64.2113 48.8303C64.4244 48.6953 64.6824 48.6278 64.9855 48.6278C65.2932 48.6278 65.5513 48.6953 65.7596 48.8303C65.968 48.9628 66.1254 49.1404 66.2319 49.3629C66.3385 49.5831 66.3917 49.8258 66.3917 50.0909V50.4744C66.3917 50.7396 66.3373 50.9834 66.2284 51.206C66.1218 51.4261 65.9632 51.6037 65.7525 51.7386C65.5442 51.8712 65.2885 51.9375 64.9855 51.9375C64.6777 51.9375 64.4185 51.8712 64.2078 51.7386C63.9971 51.6037 63.8373 51.4261 63.7284 51.206C63.6195 50.9834 63.565 50.7396 63.565 50.4744ZM64.2895 50.0909V50.4744C64.2895 50.6946 64.3415 50.8923 64.4457 51.0675C64.5499 51.2403 64.7298 51.3267 64.9855 51.3267C65.2341 51.3267 65.4092 51.2403 65.511 51.0675C65.6152 50.8923 65.6673 50.6946 65.6673 50.4744V50.0909C65.6673 49.8707 65.6176 49.6742 65.5181 49.5014C65.4187 49.3262 65.2412 49.2386 64.9855 49.2386C64.7369 49.2386 64.5582 49.3262 64.4493 49.5014C64.3427 49.6742 64.2895 49.8707 64.2895 50.0909ZM63.8349 56L68.8349 48.7273H69.6446L64.6446 56H63.8349Z" fill="url(#paint18_linear_144_9519)"/>
<path d="M30 87L39.047 82.7146C39.3321 82.5795 39.6642 82.5869 39.943 82.7345L47.3889 86.6765C47.7566 86.8712 48.2065 86.8178 48.5184 86.5425L55.7956 80.1216C56.1915 79.7722 56.7909 79.7909 57.1643 80.1643L58.8333 81.8333C59.2077 82.2077 59.809 82.2253 60.2047 81.8736L67.9037 75.0301C68.2525 74.72 68.7695 74.6925 69.1493 74.9638L74.7294 78.9496C75.1616 79.2583 75.7598 79.1753 76.0915 78.7606L78.4698 75.7877C78.9389 75.2014 79.8626 75.3218 80.1656 76.0088L86.0028 89.2396C86.3655 90.0618 87.5445 90.0254 87.8558 89.1823L98.1615 61.271C98.4704 60.4343 99.6371 60.39 100.009 61.2007L103.63 69.1022C103.98 69.8655 105.058 69.8838 105.434 69.1327L106.38 67.241C106.685 66.6305 107.498 66.4984 107.981 66.9811L109.083 68.0827C109.546 68.5464 110.323 68.4459 110.654 67.8795L112.693 64.3838C113.065 63.745 113.978 63.7177 114.389 64.3329L115.5 66L123.51 76.2345C123.966 76.8178 124.876 76.7197 125.198 76.0525L138 49.5" stroke="url(#paint19_linear_144_9519)"/>
<path d="M39.047 82.7146L30.5719 86.7291C30.2227 86.8945 30 87.2464 30 87.6328V113.5C30 114.052 30.4477 114.5 31 114.5H137C137.552 114.5 138 114.052 138 113.5V53.8766C138 52.8136 136.561 52.4848 136.099 53.4423L125.198 76.0525C124.876 76.7197 123.966 76.8178 123.51 76.2345L115.5 66L114.389 64.3329C113.978 63.7177 113.065 63.745 112.693 64.3838L110.654 67.8795C110.323 68.4459 109.546 68.5464 109.083 68.0827L107.981 66.9811C107.498 66.4984 106.685 66.6305 106.38 67.241L105.434 69.1327C105.058 69.8838 103.98 69.8655 103.63 69.1022L100.009 61.2007C99.6371 60.39 98.4704 60.4343 98.1615 61.271L87.8558 89.1823C87.5445 90.0254 86.3655 90.0618 86.0028 89.2396L80.1656 76.0088C79.8626 75.3218 78.9389 75.2014 78.4698 75.7877L76.0915 78.7606C75.7598 79.1753 75.1616 79.2583 74.7294 78.9496L69.1493 74.9638C68.7695 74.6925 68.2525 74.72 67.9037 75.0301L60.2047 81.8736C59.809 82.2253 59.2077 82.2077 58.8333 81.8333L57.1643 80.1643C56.7909 79.7909 56.1915 79.7722 55.7956 80.1216L48.5184 86.5425C48.2065 86.8178 47.7566 86.8712 47.3889 86.6765L39.943 82.7345C39.6642 82.5869 39.3321 82.5795 39.047 82.7146Z" fill="url(#paint20_radial_144_9519)" fill-opacity="0.5"/>
<circle cx="99" cy="60" r="3" fill="#FF7000"/>
</g>
<rect x="29.5" y="20.5" width="108" height="93" rx="3.5" stroke="url(#paint21_linear_144_9519)"/>
</g>
<g filter="url(#filter2_d_144_9519)">
<g clip-path="url(#clip3_144_9519)">
<rect x="64" y="99" width="172" height="43" rx="4" fill="white"/>
<rect x="64" y="99" width="172" height="43" rx="4" fill="url(#paint22_linear_144_9519)"/>
<g filter="url(#filter3_f_144_9519)">
<circle cx="232" cy="121" r="14" fill="#D9D9D9"/>
<circle cx="232" cy="121" r="14" fill="url(#paint23_radial_144_9519)"/>
</g>
<path d="M83 120H95" stroke="url(#paint24_linear_144_9519)" stroke-width="2" stroke-linecap="round" stroke-linejoin="round"/>
<path d="M89 126V114" stroke="url(#paint25_linear_144_9519)" stroke-width="2" stroke-linecap="round" stroke-linejoin="round"/>
<path d="M104.073 125.5H101.823L105.92 113.864H108.522L112.624 125.5H110.374L107.266 116.25H107.176L104.073 125.5ZM104.147 120.938H110.284V122.631H104.147V120.938ZM116.719 125.653C116.034 125.653 115.42 125.477 114.878 125.125C114.337 124.773 113.909 124.261 113.594 123.591C113.28 122.92 113.123 122.106 113.123 121.148C113.123 120.178 113.282 119.36 113.6 118.693C113.922 118.023 114.356 117.517 114.901 117.176C115.446 116.831 116.054 116.659 116.725 116.659C117.236 116.659 117.657 116.746 117.986 116.92C118.316 117.091 118.577 117.297 118.77 117.54C118.964 117.778 119.113 118.004 119.219 118.216H119.304V113.864H121.367V125.5H119.344V124.125H119.219C119.113 124.337 118.96 124.562 118.759 124.801C118.558 125.036 118.293 125.237 117.964 125.403C117.634 125.57 117.219 125.653 116.719 125.653ZM117.293 123.966C117.729 123.966 118.1 123.848 118.407 123.614C118.714 123.375 118.946 123.044 119.106 122.619C119.265 122.195 119.344 121.701 119.344 121.136C119.344 120.572 119.265 120.081 119.106 119.665C118.95 119.248 118.719 118.924 118.412 118.693C118.109 118.462 117.736 118.347 117.293 118.347C116.835 118.347 116.452 118.466 116.145 118.705C115.839 118.943 115.607 119.273 115.452 119.693C115.297 120.114 115.219 120.595 115.219 121.136C115.219 121.682 115.297 122.169 115.452 122.597C115.611 123.021 115.844 123.356 116.151 123.602C116.462 123.845 116.842 123.966 117.293 123.966ZM126.477 125.653C125.792 125.653 125.178 125.477 124.636 125.125C124.095 124.773 123.667 124.261 123.352 123.591C123.038 122.92 122.881 122.106 122.881 121.148C122.881 120.178 123.04 119.36 123.358 118.693C123.68 118.023 124.114 117.517 124.659 117.176C125.205 116.831 125.813 116.659 126.483 116.659C126.994 116.659 127.415 116.746 127.744 116.92C128.074 117.091 128.335 117.297 128.528 117.54C128.722 117.778 128.871 118.004 128.977 118.216H129.063V113.864H131.125V125.5H129.102V124.125H128.977C128.871 124.337 128.718 124.562 128.517 124.801C128.316 125.036 128.051 125.237 127.722 125.403C127.392 125.57 126.977 125.653 126.477 125.653ZM127.051 123.966C127.487 123.966 127.858 123.848 128.165 123.614C128.472 123.375 128.705 123.044 128.864 122.619C129.023 122.195 129.102 121.701 129.102 121.136C129.102 120.572 129.023 120.081 128.864 119.665C128.708 119.248 128.477 118.924 128.171 118.693C127.867 118.462 127.494 118.347 127.051 118.347C126.593 118.347 126.21 118.466 125.903 118.705C125.597 118.943 125.366 119.273 125.21 119.693C125.055 120.114 124.977 120.595 124.977 121.136C124.977 121.682 125.055 122.169 125.21 122.597C125.369 123.021 125.602 123.356 125.909 123.602C126.22 123.845 126.6 123.966 127.051 123.966ZM141.004 116.773V118.364H135.986V116.773H141.004ZM137.225 114.682H139.282V122.875C139.282 123.152 139.324 123.364 139.407 123.511C139.494 123.655 139.608 123.754 139.748 123.807C139.888 123.86 140.043 123.886 140.214 123.886C140.343 123.886 140.46 123.877 140.566 123.858C140.676 123.839 140.759 123.822 140.816 123.807L141.163 125.415C141.053 125.453 140.896 125.494 140.691 125.54C140.49 125.585 140.244 125.612 139.952 125.619C139.437 125.634 138.973 125.557 138.56 125.386C138.147 125.212 137.82 124.943 137.577 124.58C137.339 124.216 137.221 123.761 137.225 123.216V114.682ZM146.117 125.67C145.264 125.67 144.526 125.483 143.901 125.108C143.276 124.733 142.791 124.208 142.446 123.534C142.105 122.86 141.935 122.072 141.935 121.17C141.935 120.269 142.105 119.479 142.446 118.801C142.791 118.123 143.276 117.597 143.901 117.222C144.526 116.847 145.264 116.659 146.117 116.659C146.969 116.659 147.708 116.847 148.333 117.222C148.958 117.597 149.441 118.123 149.782 118.801C150.126 119.479 150.299 120.269 150.299 121.17C150.299 122.072 150.126 122.86 149.782 123.534C149.441 124.208 148.958 124.733 148.333 125.108C147.708 125.483 146.969 125.67 146.117 125.67ZM146.128 124.023C146.59 124.023 146.977 123.896 147.287 123.642C147.598 123.384 147.829 123.04 147.98 122.608C148.136 122.176 148.213 121.695 148.213 121.165C148.213 120.631 148.136 120.148 147.98 119.716C147.829 119.28 147.598 118.934 147.287 118.676C146.977 118.419 146.59 118.29 146.128 118.29C145.655 118.29 145.261 118.419 144.946 118.676C144.636 118.934 144.403 119.28 144.247 119.716C144.096 120.148 144.02 120.631 144.02 121.165C144.02 121.695 144.096 122.176 144.247 122.608C144.403 123.04 144.636 123.384 144.946 123.642C145.261 123.896 145.655 124.023 146.128 124.023ZM157.174 125.5L154.708 116.773H156.805L158.339 122.909H158.419L159.987 116.773H162.061L163.629 122.875H163.714L165.225 116.773H167.328L164.856 125.5H162.714L161.078 119.602H160.958L159.322 125.5H157.174ZM170.955 125.676C170.402 125.676 169.904 125.578 169.461 125.381C169.021 125.18 168.673 124.884 168.415 124.494C168.162 124.104 168.035 123.623 168.035 123.051C168.035 122.559 168.126 122.152 168.307 121.83C168.489 121.508 168.737 121.25 169.052 121.057C169.366 120.864 169.72 120.718 170.114 120.619C170.512 120.517 170.923 120.443 171.347 120.398C171.858 120.345 172.273 120.297 172.591 120.256C172.91 120.21 173.141 120.142 173.285 120.051C173.432 119.956 173.506 119.811 173.506 119.614V119.58C173.506 119.152 173.379 118.82 173.126 118.585C172.872 118.35 172.506 118.233 172.029 118.233C171.525 118.233 171.126 118.343 170.83 118.562C170.538 118.782 170.341 119.042 170.239 119.341L168.319 119.068C168.47 118.538 168.72 118.095 169.069 117.739C169.417 117.379 169.843 117.11 170.347 116.932C170.851 116.75 171.408 116.659 172.018 116.659C172.438 116.659 172.857 116.708 173.273 116.807C173.69 116.905 174.071 117.068 174.415 117.295C174.76 117.519 175.037 117.824 175.245 118.21C175.457 118.597 175.563 119.08 175.563 119.659V125.5H173.586V124.301H173.518C173.393 124.544 173.216 124.771 172.989 124.983C172.766 125.191 172.483 125.36 172.143 125.489C171.805 125.614 171.41 125.676 170.955 125.676ZM171.489 124.165C171.902 124.165 172.26 124.083 172.563 123.92C172.866 123.754 173.099 123.534 173.262 123.261C173.429 122.989 173.512 122.691 173.512 122.369V121.341C173.447 121.394 173.338 121.443 173.182 121.489C173.031 121.534 172.86 121.574 172.671 121.608C172.482 121.642 172.294 121.672 172.108 121.699C171.923 121.725 171.762 121.748 171.626 121.767C171.319 121.809 171.044 121.877 170.802 121.972C170.559 122.066 170.368 122.199 170.228 122.369C170.088 122.536 170.018 122.752 170.018 123.017C170.018 123.396 170.156 123.682 170.432 123.875C170.709 124.068 171.061 124.165 171.489 124.165ZM181.669 116.773V118.364H176.652V116.773H181.669ZM177.891 114.682H179.948V122.875C179.948 123.152 179.989 123.364 180.073 123.511C180.16 123.655 180.273 123.754 180.413 123.807C180.554 123.86 180.709 123.886 180.879 123.886C181.008 123.886 181.126 123.877 181.232 123.858C181.342 123.839 181.425 123.822 181.482 123.807L181.828 125.415C181.718 125.453 181.561 125.494 181.357 125.54C181.156 125.585 180.91 125.612 180.618 125.619C180.103 125.634 179.639 125.557 179.226 125.386C178.813 125.212 178.485 124.943 178.243 124.58C178.004 124.216 177.887 123.761 177.891 123.216V114.682ZM186.782 125.67C185.911 125.67 185.163 125.479 184.538 125.097C183.917 124.714 183.438 124.186 183.101 123.511C182.767 122.833 182.601 122.053 182.601 121.17C182.601 120.284 182.771 119.502 183.112 118.824C183.453 118.142 183.934 117.612 184.555 117.233C185.18 116.85 185.919 116.659 186.771 116.659C187.479 116.659 188.106 116.79 188.652 117.051C189.201 117.309 189.638 117.674 189.964 118.148C190.29 118.617 190.476 119.167 190.521 119.795H188.555C188.476 119.375 188.286 119.025 187.987 118.744C187.691 118.46 187.296 118.318 186.799 118.318C186.379 118.318 186.01 118.432 185.691 118.659C185.373 118.883 185.125 119.205 184.947 119.625C184.773 120.045 184.686 120.549 184.686 121.136C184.686 121.731 184.773 122.242 184.947 122.67C185.121 123.095 185.366 123.422 185.68 123.653C185.998 123.881 186.371 123.994 186.799 123.994C187.102 123.994 187.373 123.937 187.612 123.824C187.854 123.706 188.057 123.538 188.22 123.318C188.383 123.098 188.495 122.831 188.555 122.517H190.521C190.472 123.134 190.29 123.682 189.976 124.159C189.661 124.633 189.233 125.004 188.691 125.273C188.15 125.538 187.513 125.67 186.782 125.67ZM193.947 120.386V125.5H191.89V113.864H193.901V118.256H194.004C194.208 117.763 194.524 117.375 194.952 117.091C195.384 116.803 195.934 116.659 196.6 116.659C197.206 116.659 197.735 116.786 198.185 117.04C198.636 117.294 198.985 117.665 199.231 118.153C199.481 118.642 199.606 119.239 199.606 119.943V125.5H197.549V120.261C197.549 119.674 197.398 119.218 197.094 118.892C196.795 118.562 196.375 118.398 195.833 118.398C195.469 118.398 195.144 118.477 194.856 118.636C194.572 118.792 194.348 119.017 194.185 119.312C194.026 119.608 193.947 119.966 193.947 120.386ZM203.439 113.864V125.5H201.382V113.864H203.439ZM205.234 125.5V116.773H207.291V125.5H205.234ZM206.268 115.534C205.943 115.534 205.662 115.426 205.427 115.21C205.193 114.991 205.075 114.727 205.075 114.42C205.075 114.11 205.193 113.847 205.427 113.631C205.662 113.411 205.943 113.301 206.268 113.301C206.598 113.301 206.878 113.411 207.109 113.631C207.344 113.847 207.462 114.11 207.462 114.42C207.462 114.727 207.344 114.991 207.109 115.21C206.878 115.426 206.598 115.534 206.268 115.534ZM215.984 119.08L214.109 119.284C214.056 119.095 213.963 118.917 213.831 118.75C213.702 118.583 213.527 118.449 213.308 118.347C213.088 118.244 212.819 118.193 212.501 118.193C212.073 118.193 211.713 118.286 211.421 118.472C211.134 118.657 210.991 118.898 210.995 119.193C210.991 119.447 211.084 119.653 211.274 119.812C211.467 119.972 211.785 120.102 212.228 120.205L213.717 120.523C214.543 120.701 215.156 120.983 215.558 121.369C215.963 121.756 216.168 122.261 216.171 122.886C216.168 123.436 216.007 123.92 215.688 124.341C215.374 124.758 214.937 125.083 214.376 125.318C213.815 125.553 213.171 125.67 212.444 125.67C211.376 125.67 210.516 125.447 209.865 125C209.213 124.549 208.825 123.922 208.7 123.119L210.706 122.926C210.796 123.32 210.99 123.617 211.285 123.818C211.581 124.019 211.965 124.119 212.438 124.119C212.927 124.119 213.319 124.019 213.615 123.818C213.914 123.617 214.063 123.369 214.063 123.074C214.063 122.824 213.967 122.617 213.774 122.455C213.584 122.292 213.289 122.167 212.887 122.08L211.399 121.767C210.562 121.593 209.942 121.299 209.541 120.886C209.139 120.47 208.94 119.943 208.944 119.307C208.94 118.769 209.086 118.303 209.382 117.909C209.681 117.511 210.096 117.205 210.626 116.989C211.16 116.769 211.776 116.659 212.473 116.659C213.495 116.659 214.3 116.877 214.887 117.312C215.478 117.748 215.844 118.337 215.984 119.08ZM221.905 116.773V118.364H216.888V116.773H221.905ZM218.127 114.682H220.184V122.875C220.184 123.152 220.225 123.364 220.309 123.511C220.396 123.655 220.51 123.754 220.65 123.807C220.79 123.86 220.945 123.886 221.116 123.886C221.244 123.886 221.362 123.877 221.468 123.858C221.578 123.839 221.661 123.822 221.718 123.807L222.064 125.415C221.955 125.453 221.797 125.494 221.593 125.54C221.392 125.585 221.146 125.612 220.854 125.619C220.339 125.634 219.875 125.557 219.462 125.386C219.049 125.212 218.722 124.943 218.479 124.58C218.241 124.216 218.123 123.761 218.127 123.216V114.682Z" fill="url(#paint26_linear_144_9519)"/>
</g>
<rect x="64.5" y="99.5" width="171" height="42" rx="3.5" stroke="url(#paint27_linear_144_9519)"/>
</g>
<path d="M231.111 126.122C230.617 124.861 231.861 123.617 233.122 124.111L257.013 133.459C258.406 134.004 258.299 136.01 256.856 136.403L247.142 139.052C246.611 139.197 246.197 139.611 246.052 140.142L243.403 149.856C243.01 151.299 241.004 151.406 240.459 150.013L231.111 126.122Z" fill="url(#paint28_radial_144_9519)"/>
<defs>
<filter id="filter0_d_144_9519" x="41" y="3" width="119" height="104" filterUnits="userSpaceOnUse" color-interpolation-filters="sRGB">
<feFlood flood-opacity="0" result="BackgroundImageFix"/>
<feColorMatrix in="SourceAlpha" type="matrix" values="0 0 0 0 0 0 0 0 0 0 0 0 0 0 0 0 0 0 127 0" result="hardAlpha"/>
<feOffset dx="4" dy="-3"/>
<feGaussianBlur stdDeviation="2.5"/>
<feComposite in2="hardAlpha" operator="out"/>
<feColorMatrix type="matrix" values="0 0 0 0 0 0 0 0 0 0 0 0 0 0 0 0 0 0 0.25 0"/>
<feBlend mode="normal" in2="BackgroundImageFix" result="effect1_dropShadow_144_9519"/>
<feBlend mode="normal" in="SourceGraphic" in2="effect1_dropShadow_144_9519" result="shape"/>
</filter>
<filter id="filter1_d_144_9519" x="28" y="12" width="119" height="104" filterUnits="userSpaceOnUse" color-interpolation-filters="sRGB">
<feFlood flood-opacity="0" result="BackgroundImageFix"/>
<feColorMatrix in="SourceAlpha" type="matrix" values="0 0 0 0 0 0 0 0 0 0 0 0 0 0 0 0 0 0 127 0" result="hardAlpha"/>
<feOffset dx="4" dy="-3"/>
<feGaussianBlur stdDeviation="2.5"/>
<feComposite in2="hardAlpha" operator="out"/>
<feColorMatrix type="matrix" values="0 0 0 0 0 0 0 0 0 0 0 0 0 0 0 0 0 0 0.25 0"/>
<feBlend mode="normal" in2="BackgroundImageFix" result="effect1_dropShadow_144_9519"/>
<feBlend mode="normal" in="SourceGraphic" in2="effect1_dropShadow_144_9519" result="shape"/>
</filter>
<filter id="filter2_d_144_9519" x="57" y="94" width="180" height="51" filterUnits="userSpaceOnUse" color-interpolation-filters="sRGB">
<feFlood flood-opacity="0" result="BackgroundImageFix"/>
<feColorMatrix in="SourceAlpha" type="matrix" values="0 0 0 0 0 0 0 0 0 0 0 0 0 0 0 0 0 0 127 0" result="hardAlpha"/>
<feOffset dx="-3" dy="-1"/>
<feGaussianBlur stdDeviation="2"/>
<feComposite in2="hardAlpha" operator="out"/>
<feColorMatrix type="matrix" values="0 0 0 0 0 0 0 0 0 0 0 0 0 0 0 0 0 0 0.25 0"/>
<feBlend mode="normal" in2="BackgroundImageFix" result="effect1_dropShadow_144_9519"/>
<feBlend mode="normal" in="SourceGraphic" in2="effect1_dropShadow_144_9519" result="shape"/>
</filter>
<filter id="filter3_f_144_9519" x="178.9" y="67.9" width="106.2" height="106.2" filterUnits="userSpaceOnUse" color-interpolation-filters="sRGB">
<feFlood flood-opacity="0" result="BackgroundImageFix"/>
<feBlend mode="normal" in="SourceGraphic" in2="BackgroundImageFix" result="shape"/>
<feGaussianBlur stdDeviation="19.55" result="effect1_foregroundBlur_144_9519"/>
</filter>
<linearGradient id="paint0_linear_144_9519" x1="52" y1="50" x2="161" y2="50" gradientUnits="userSpaceOnUse">
<stop stop-color="#333333"/>
<stop offset="1" stop-color="#222222"/>
</linearGradient>
<radialGradient id="paint1_radial_144_9519" cx="0" cy="0" r="1" gradientUnits="userSpaceOnUse" gradientTransform="translate(107 36) rotate(90) scale(59 59)">
<stop stop-color="#FF2300"/>
<stop offset="1" stop-color="#FF7400" stop-opacity="0.05"/>
</radialGradient>
<linearGradient id="paint2_linear_144_9519" x1="92.5" y1="12" x2="92.5" y2="27" gradientUnits="userSpaceOnUse">
<stop stop-color="white"/>
<stop offset="1" stop-color="#999999"/>
</linearGradient>
<linearGradient id="paint3_linear_144_9519" x1="78.5" y1="29" x2="78.5" y2="41" gradientUnits="userSpaceOnUse">
<stop stop-color="white"/>
<stop offset="1" stop-color="#999999"/>
</linearGradient>
<linearGradient id="paint4_linear_144_9519" x1="107.79" y1="49.7308" x2="107.79" y2="74.5" gradientUnits="userSpaceOnUse">
<stop stop-color="#FF7400"/>
<stop offset="1" stop-color="#FF2300"/>
</linearGradient>
<linearGradient id="paint5_linear_144_9519" x1="106.5" y1="3" x2="106.5" y2="97" gradientUnits="userSpaceOnUse">
<stop stop-color="#2D2D2D"/>
<stop offset="0.794358" stop-color="#202020"/>
<stop offset="1" stop-color="#1A1A1A"/>
</linearGradient>
<linearGradient id="paint6_linear_144_9519" x1="93" y1="99.5" x2="12" y2="99.5" gradientUnits="userSpaceOnUse">
<stop stop-color="#181818"/>
<stop offset="0.69" stop-color="#FF7400"/>
<stop offset="1" stop-color="#181818"/>
</linearGradient>
<linearGradient id="paint7_linear_144_9519" x1="141" y1="101.5" x2="60" y2="101.5" gradientUnits="userSpaceOnUse">
<stop stop-color="#181818"/>
<stop offset="0.69" stop-color="#FF7400"/>
<stop offset="1" stop-color="#181818"/>
</linearGradient>
<linearGradient id="paint8_linear_144_9519" x1="217" y1="87.5" x2="136" y2="87.5" gradientUnits="userSpaceOnUse">
<stop stop-color="#181818"/>
<stop offset="0.69" stop-color="#FF7400"/>
<stop offset="1" stop-color="#181818"/>
</linearGradient>
<linearGradient id="paint9_linear_144_9519" x1="42" y1="58" x2="151" y2="58" gradientUnits="userSpaceOnUse">
<stop stop-color="#333333"/>
<stop offset="1" stop-color="#222222"/>
</linearGradient>
<radialGradient id="paint10_radial_144_9519" cx="0" cy="0" r="1" gradientUnits="userSpaceOnUse" gradientTransform="translate(97 44) rotate(90) scale(59 59)">
<stop stop-color="#FF2300"/>
<stop offset="1" stop-color="#FF7400" stop-opacity="0.05"/>
</radialGradient>
<linearGradient id="paint11_linear_144_9519" x1="82.5" y1="20" x2="82.5" y2="35" gradientUnits="userSpaceOnUse">
<stop stop-color="white"/>
<stop offset="1" stop-color="#999999"/>
</linearGradient>
<linearGradient id="paint12_linear_144_9519" x1="68.5" y1="37" x2="68.5" y2="49" gradientUnits="userSpaceOnUse">
<stop stop-color="white"/>
<stop offset="1" stop-color="#999999"/>
</linearGradient>
<linearGradient id="paint13_linear_144_9519" x1="97.7903" y1="57.7308" x2="97.7903" y2="82.5" gradientUnits="userSpaceOnUse">
<stop stop-color="#FF7400"/>
<stop offset="1" stop-color="#FF2300"/>
</linearGradient>
<linearGradient id="paint14_linear_144_9519" x1="96.5" y1="11" x2="96.5" y2="105" gradientUnits="userSpaceOnUse">
<stop stop-color="#2D2D2D"/>
<stop offset="0.794358" stop-color="#202020"/>
<stop offset="1" stop-color="#1A1A1A"/>
</linearGradient>
<linearGradient id="paint15_linear_144_9519" x1="266" y1="75.5" x2="185" y2="75.5" gradientUnits="userSpaceOnUse">
<stop stop-color="#181818"/>
<stop offset="0.69" stop-color="#FF7400"/>
<stop offset="1" stop-color="#181818"/>
</linearGradient>
<linearGradient id="paint16_linear_144_9519" x1="29" y1="67" x2="138" y2="67" gradientUnits="userSpaceOnUse">
<stop stop-color="#333333"/>
<stop offset="1" stop-color="#222222"/>
</linearGradient>
<linearGradient id="paint17_linear_144_9519" x1="69.5" y1="29" x2="69.5" y2="44" gradientUnits="userSpaceOnUse">
<stop stop-color="white"/>
<stop offset="1" stop-color="#999999"/>
</linearGradient>
<linearGradient id="paint18_linear_144_9519" x1="55.5" y1="46" x2="55.5" y2="58" gradientUnits="userSpaceOnUse">
<stop stop-color="white"/>
<stop offset="1" stop-color="#999999"/>
</linearGradient>
<linearGradient id="paint19_linear_144_9519" x1="84.7903" y1="66.7308" x2="84.7903" y2="91.5" gradientUnits="userSpaceOnUse">
<stop stop-color="#FF7400"/>
<stop offset="1" stop-color="#FF2300"/>
</linearGradient>
<radialGradient id="paint20_radial_144_9519" cx="0" cy="0" r="1" gradientUnits="userSpaceOnUse" gradientTransform="translate(84 53) rotate(90) scale(59 59)">
<stop stop-color="#FF2300"/>
<stop offset="1" stop-color="#FF7400" stop-opacity="0.05"/>
</radialGradient>
<linearGradient id="paint21_linear_144_9519" x1="83.5" y1="20" x2="83.5" y2="114" gradientUnits="userSpaceOnUse">
<stop stop-color="#2D2D2D"/>
<stop offset="0.794358" stop-color="#202020"/>
<stop offset="1" stop-color="#1A1A1A"/>
</linearGradient>
<linearGradient id="paint22_linear_144_9519" x1="64" y1="120.5" x2="236" y2="120.5" gradientUnits="userSpaceOnUse">
<stop stop-color="#333333"/>
<stop offset="0.815" stop-color="#222222"/>
<stop offset="1" stop-color="#222222"/>
</linearGradient>
<radialGradient id="paint23_radial_144_9519" cx="0" cy="0" r="1" gradientUnits="userSpaceOnUse" gradientTransform="translate(230.963 115.815) rotate(-180) scale(17.6296)">
<stop stop-color="#FF1300"/>
<stop offset="1" stop-color="#FF8300"/>
</radialGradient>
<linearGradient id="paint24_linear_144_9519" x1="95" y1="120.5" x2="88.5" y2="120.5" gradientUnits="userSpaceOnUse">
<stop stop-color="white"/>
<stop offset="1" stop-color="#999999"/>
</linearGradient>
<linearGradient id="paint25_linear_144_9519" x1="89.5" y1="114" x2="89.5" y2="126" gradientUnits="userSpaceOnUse">
<stop stop-color="white"/>
<stop offset="1" stop-color="#999999"/>
</linearGradient>
<linearGradient id="paint26_linear_144_9519" x1="162" y1="110.5" x2="162" y2="129.5" gradientUnits="userSpaceOnUse">
<stop stop-color="white"/>
<stop offset="1" stop-color="#999999"/>
</linearGradient>
<linearGradient id="paint27_linear_144_9519" x1="247.069" y1="96" x2="171.386" y2="167.937" gradientUnits="userSpaceOnUse">
<stop stop-color="#2D2D2D"/>
<stop offset="0.219061" stop-color="#FF6301" stop-opacity="0"/>
<stop offset="0.67" stop-color="#2D2D2D" stop-opacity="0.359745"/>
</linearGradient>
<radialGradient id="paint28_radial_144_9519" cx="0" cy="0" r="1" gradientUnits="userSpaceOnUse" gradientTransform="translate(243.5 132.5) rotate(-180) scale(17)">
<stop stop-color="#FF1300"/>
<stop offset="1" stop-color="#FF8300"/>
</radialGradient>
<clipPath id="clip0_144_9519">
<rect x="52" y="3" width="109" height="94" rx="4" fill="white"/>
</clipPath>
<clipPath id="clip1_144_9519">
<rect x="42" y="11" width="109" height="94" rx="4" fill="white"/>
</clipPath>
<clipPath id="clip2_144_9519">
<rect x="29" y="20" width="109" height="94" rx="4" fill="white"/>
</clipPath>
<clipPath id="clip3_144_9519">
<rect x="64" y="99" width="172" height="43" rx="4" fill="white"/>
</clipPath>
</defs>
</svg>
