<svg width="276" height="188" viewBox="0 0 276 188" fill="none" xmlns="http://www.w3.org/2000/svg">
<line y1="-0.5" x2="102" y2="-0.5" transform="matrix(0.00264458 -0.999996 0.999997 0.00260112 214.73 172)" stroke="url(#paint0_linear_144_9374)"/>
<path d="M210.902 107.241L210.45 107.028L210.448 107.033L210.902 107.241ZM212.333 98.5538C212.333 100.027 213.527 101.221 215 101.221C216.473 101.221 217.667 100.027 217.667 98.5538C217.667 97.0811 216.473 95.8872 215 95.8872C213.527 95.8872 212.333 97.0811 212.333 98.5538ZM196.826 129.967L197.285 129.769L196.826 129.967ZM200.48 130.006L200.026 129.798L200.48 130.006ZM190.586 123.93L190.132 123.72L190.586 123.93ZM194.236 123.977L194.695 123.779L194.236 123.977ZM181.169 135.562L181.662 135.482L181.169 135.562ZM184.957 136.08L184.503 135.87L184.957 136.08ZM172.025 103.132L172.503 103.279L172.025 103.132ZM175.91 103.399L175.416 103.48L175.91 103.399ZM151.796 157.058L151.353 157.291L151.796 157.058ZM155.476 156.716L154.999 156.569L155.476 156.716ZM137.79 136.31L137.412 135.982L137.79 136.31ZM141.073 136.686L140.63 136.919L141.073 136.686ZM124.983 147.063L125.416 146.812L124.983 147.063ZM128.227 147.368L128.605 147.696L128.227 147.368ZM111.79 129.967L112.201 130.252L111.79 129.967ZM115.164 130.105L114.731 130.356L115.164 130.105ZM88.3859 160.224L88.6671 159.81L88.3859 160.224ZM91.154 159.71L91.5648 159.995L91.154 159.71ZM80.1556 156.808L80.5396 157.128L80.1556 156.808ZM82.8166 156.435L82.5353 156.849L82.8166 156.435ZM66.109 169.307L65.664 169.535L66.109 169.307ZM69.4253 169.677L69.0413 169.356L69.4253 169.677ZM53.5485 144.776L53.1035 145.004L53.5485 144.776ZM31.0783 164.904L31.4677 164.59L31.0783 164.904ZM34.2113 164.882L33.8175 164.574L34.2113 164.882ZM21.8684 156.828L21.5341 156.456L21.8684 156.828ZM24.7638 157.061L24.3743 157.374L24.7638 157.061ZM5.33437 172.372L22.2028 157.2L21.5341 156.456L4.66563 171.628L5.33437 172.372ZM24.3743 157.374L30.6888 165.217L31.4677 164.59L25.1532 156.747L24.3743 157.374ZM34.6051 165.19L50.5869 144.763L49.7993 144.147L33.8175 164.574L34.6051 165.19ZM53.1035 145.004L65.664 169.535L66.5541 169.079L53.9936 144.548L53.1035 145.004ZM69.8093 169.997L80.5396 157.128L79.7716 156.488L69.0413 169.356L69.8093 169.997ZM82.5353 156.849L88.1047 160.637L88.6671 159.81L83.0978 156.022L82.5353 156.849ZM91.5648 159.995L112.201 130.252L111.379 129.682L90.7432 159.425L91.5648 159.995ZM114.731 130.356L124.551 147.313L125.416 146.812L115.596 129.855L114.731 130.356ZM128.605 147.696L138.168 136.637L137.412 135.982L127.849 147.041L128.605 147.696ZM140.63 136.919L151.353 157.291L152.238 156.825L141.515 136.453L140.63 136.919ZM155.954 156.864L172.503 103.279L171.547 102.984L154.999 156.569L155.954 156.864ZM175.416 103.48L180.675 135.643L181.662 135.482L176.403 103.319L175.416 103.48ZM185.411 136.29L191.039 124.14L190.132 123.72L184.503 135.87L185.411 136.29ZM193.777 124.176L196.367 130.166L197.285 129.769L194.695 123.779L193.777 124.176ZM200.935 130.214L211.357 107.449L210.448 107.033L200.026 129.798L200.935 130.214ZM211.355 107.454L215.452 98.7671L214.548 98.3405L210.45 107.028L211.355 107.454ZM196.367 130.166C197.227 132.153 200.034 132.183 200.935 130.214L200.026 129.798C199.485 130.979 197.801 130.961 197.285 129.769L196.367 130.166ZM191.039 124.14C191.584 122.965 193.263 122.986 193.777 124.176L194.695 123.779C193.838 121.796 191.04 121.76 190.132 123.72L191.039 124.14ZM180.675 135.643C181.073 138.074 184.375 138.526 185.411 136.29L184.503 135.87C183.882 137.211 181.901 136.94 181.662 135.482L180.675 135.643ZM172.503 103.279C172.97 101.765 175.161 101.916 175.416 103.48L176.403 103.319C175.977 100.712 172.327 100.461 171.547 102.984L172.503 103.279ZM151.353 157.291C152.391 159.263 155.296 158.993 155.954 156.864L154.999 156.569C154.604 157.847 152.861 158.008 152.238 156.825L151.353 157.291ZM138.168 136.637C138.859 135.837 140.138 135.984 140.63 136.919L141.515 136.453C140.695 134.895 138.564 134.65 137.412 135.982L138.168 136.637ZM124.551 147.313C125.412 148.8 127.481 148.995 128.605 147.696L127.849 147.041C127.174 147.821 125.933 147.704 125.416 146.812L124.551 147.313ZM112.201 130.252C112.827 129.349 114.18 129.405 114.731 130.356L115.596 129.855C114.678 128.269 112.423 128.177 111.379 129.682L112.201 130.252ZM88.1047 160.637C89.2389 161.409 90.7829 161.122 91.5648 159.995L90.7432 159.425C90.274 160.102 89.3476 160.273 88.6671 159.81L88.1047 160.637ZM80.5396 157.128C81.0339 156.536 81.8972 156.415 82.5353 156.849L83.0978 156.022C82.0343 155.299 80.5954 155.5 79.7716 156.488L80.5396 157.128ZM65.664 169.535C66.4808 171.13 68.6615 171.373 69.8093 169.997L69.0413 169.356C68.3526 170.182 67.0442 170.036 66.5541 169.079L65.664 169.535ZM50.5869 144.763C51.262 143.9 52.6042 144.029 53.1035 145.004L53.9936 144.548C53.1615 142.923 50.9244 142.709 49.7993 144.147L50.5869 144.763ZM30.6888 165.217C31.6985 166.472 33.613 166.458 34.6051 165.19L33.8175 164.574C33.2222 165.335 32.0735 165.343 31.4677 164.59L30.6888 165.217ZM22.2028 157.2C22.8427 156.624 23.8346 156.704 24.3743 157.374L25.1532 156.747C24.2537 155.63 22.6005 155.497 21.5341 156.456L22.2028 157.2Z" fill="url(#paint1_linear_144_9374)"/>
<path d="M21.8684 156.828L8.90994 168.483C7.54275 169.713 8.4199 171.981 10.2587 171.97L212.513 170.827C213.608 170.82 214.494 169.935 214.502 168.841L214.934 107.822C214.95 105.67 212.02 105.016 211.118 106.971L200.485 130.027C199.761 131.597 197.519 131.57 196.833 129.983L194.236 123.977C193.551 122.391 191.312 122.362 190.586 123.93L184.957 136.08C184.129 137.868 181.487 137.507 181.169 135.562L175.91 103.399C175.569 101.314 172.649 101.113 172.025 103.132L155.476 156.716C154.95 158.42 152.626 158.636 151.796 157.058L141.073 136.686C140.416 135.44 138.711 135.244 137.79 136.31L128.227 147.368C127.328 148.408 125.672 148.252 124.983 147.063L115.164 130.105C114.429 128.837 112.625 128.763 111.79 129.967L91.154 159.71C90.5285 160.612 89.2932 160.841 88.3859 160.224L82.8166 156.435C81.9658 155.857 80.8146 156.018 80.1556 156.808L69.4253 169.677C68.507 170.778 66.7625 170.583 66.109 169.307L53.5485 144.776C52.8828 143.476 51.0932 143.305 50.1931 144.455L34.2113 164.882C33.4176 165.896 31.886 165.907 31.0783 164.904L24.7638 157.061C24.0441 156.167 22.7216 156.061 21.8684 156.828Z" fill="url(#paint2_linear_144_9374)" fill-opacity="0.3"/>
<path d="M228.774 102.136V94.2727H230.558V102.136H228.774ZM225.734 99.0966V97.3125H233.598V99.0966H225.734ZM235.999 104V102.477L240.039 98.517C240.425 98.1269 240.747 97.7803 241.005 97.4773C241.262 97.1742 241.456 96.8807 241.584 96.5966C241.713 96.3125 241.778 96.0095 241.778 95.6875C241.778 95.3201 241.694 95.0057 241.528 94.7443C241.361 94.4792 241.132 94.2746 240.84 94.1307C240.548 93.9867 240.217 93.9148 239.846 93.9148C239.463 93.9148 239.128 93.9943 238.84 94.1534C238.552 94.3087 238.329 94.5303 238.17 94.8182C238.014 95.1061 237.937 95.4489 237.937 95.8466H235.931C235.931 95.108 236.099 94.4659 236.437 93.9205C236.774 93.375 237.238 92.9527 237.829 92.6534C238.423 92.3542 239.105 92.2045 239.874 92.2045C240.654 92.2045 241.34 92.3504 241.931 92.642C242.522 92.9337 242.98 93.3333 243.306 93.8409C243.635 94.3485 243.8 94.928 243.8 95.5795C243.8 96.0152 243.717 96.4432 243.55 96.8636C243.384 97.2841 243.09 97.75 242.67 98.2614C242.253 98.7727 241.668 99.392 240.914 100.119L238.908 102.159V102.239H243.976V104H235.999ZM250.558 104.222C249.622 104.222 248.819 103.985 248.149 103.511C247.482 103.034 246.969 102.347 246.609 101.449C246.253 100.547 246.075 99.4621 246.075 98.1932C246.079 96.9242 246.258 95.8447 246.615 94.9545C246.974 94.0606 247.488 93.3788 248.154 92.9091C248.825 92.4394 249.626 92.2045 250.558 92.2045C251.49 92.2045 252.291 92.4394 252.961 92.9091C253.632 93.3788 254.145 94.0606 254.501 94.9545C254.861 95.8485 255.041 96.928 255.041 98.1932C255.041 99.4659 254.861 100.553 254.501 101.455C254.145 102.352 253.632 103.038 252.961 103.511C252.294 103.985 251.493 104.222 250.558 104.222ZM250.558 102.443C251.285 102.443 251.859 102.085 252.279 101.369C252.704 100.65 252.916 99.5909 252.916 98.1932C252.916 97.2689 252.819 96.4924 252.626 95.8636C252.433 95.2348 252.16 94.7614 251.808 94.4432C251.455 94.1212 251.039 93.9602 250.558 93.9602C249.834 93.9602 249.262 94.3201 248.842 95.0398C248.421 95.7557 248.209 96.8068 248.205 98.1932C248.202 99.1212 248.294 99.9015 248.484 100.534C248.677 101.167 248.95 101.644 249.302 101.966C249.654 102.284 250.073 102.443 250.558 102.443ZM263.47 101.818V101.205C263.47 100.754 263.565 100.339 263.754 99.9602C263.947 99.5814 264.228 99.2765 264.595 99.0455C264.962 98.8144 265.408 98.6989 265.93 98.6989C266.468 98.6989 266.919 98.8144 267.283 99.0455C267.646 99.2727 267.921 99.5758 268.106 99.9545C268.296 100.333 268.391 100.75 268.391 101.205V101.818C268.391 102.269 268.296 102.684 268.106 103.062C267.917 103.441 267.639 103.746 267.271 103.977C266.908 104.208 266.461 104.324 265.93 104.324C265.4 104.324 264.951 104.208 264.584 103.977C264.216 103.746 263.938 103.441 263.748 103.062C263.563 102.684 263.47 102.269 263.47 101.818ZM264.953 101.205V101.818C264.953 102.117 265.025 102.392 265.169 102.642C265.313 102.892 265.567 103.017 265.93 103.017C266.298 103.017 266.55 102.894 266.686 102.648C266.826 102.398 266.896 102.121 266.896 101.818V101.205C266.896 100.902 266.83 100.625 266.697 100.375C266.565 100.121 266.309 99.9943 265.93 99.9943C265.574 99.9943 265.322 100.121 265.175 100.375C265.027 100.625 264.953 100.902 264.953 101.205ZM257.555 95.1591V94.5455C257.555 94.0909 257.652 93.6742 257.845 93.2955C258.038 92.9167 258.319 92.6136 258.686 92.3864C259.053 92.1553 259.498 92.0398 260.021 92.0398C260.555 92.0398 261.004 92.1553 261.368 92.3864C261.735 92.6136 262.012 92.9167 262.197 93.2955C262.383 93.6742 262.476 94.0909 262.476 94.5455V95.1591C262.476 95.6136 262.381 96.0303 262.192 96.4091C262.006 96.7841 261.73 97.0852 261.362 97.3125C260.995 97.5398 260.548 97.6534 260.021 97.6534C259.487 97.6534 259.036 97.5398 258.669 97.3125C258.305 97.0852 258.029 96.7822 257.839 96.4034C257.65 96.0246 257.555 95.6098 257.555 95.1591ZM259.05 94.5455V95.1591C259.05 95.4621 259.12 95.7386 259.26 95.9886C259.404 96.2348 259.658 96.358 260.021 96.358C260.385 96.358 260.635 96.2348 260.771 95.9886C260.911 95.7386 260.981 95.4621 260.981 95.1591V94.5455C260.981 94.2424 260.915 93.9659 260.783 93.7159C260.65 93.4621 260.396 93.3352 260.021 93.3352C259.661 93.3352 259.409 93.4621 259.266 93.7159C259.122 93.9697 259.05 94.2462 259.05 94.5455ZM258.203 104L266.203 92.3636H267.623L259.623 104H258.203Z" fill="url(#paint3_linear_144_9374)"/>
<rect x="16.5" y="12.5" width="242" height="43" rx="3.5" fill="url(#paint4_linear_144_9374)" stroke="url(#paint5_linear_144_9374)"/>
<path d="M68.7124 39.1541C67.9733 39.1541 67.337 38.9867 66.8033 38.652C66.273 38.3139 65.8654 37.8482 65.5803 37.255C65.2953 36.6617 65.1528 35.9822 65.1528 35.2166C65.1528 34.4411 65.2986 33.7566 65.5903 33.1634C65.8819 32.5668 66.2929 32.1011 66.8232 31.7663C67.3535 31.4316 67.9783 31.2642 68.6975 31.2642C69.2775 31.2642 69.7946 31.3719 70.2487 31.5874C70.7027 31.7995 71.069 32.0978 71.3474 32.4822C71.6291 32.8667 71.7965 33.3158 71.8495 33.8295H70.4028C70.3232 33.4716 70.1409 33.1634 69.8559 32.9048C69.5742 32.6463 69.1963 32.517 68.7224 32.517C68.3081 32.517 67.9451 32.6264 67.6336 32.8452C67.3254 33.0606 67.0851 33.3688 66.9127 33.7699C66.7404 34.1676 66.6542 34.6383 66.6542 35.1818C66.6542 35.7386 66.7387 36.2192 66.9077 36.6236C67.0768 37.0279 67.3154 37.3411 67.6237 37.5632C67.9352 37.7853 68.3014 37.8963 68.7224 37.8963C69.0041 37.8963 69.2593 37.8449 69.488 37.7422C69.72 37.6361 69.9139 37.4853 70.0697 37.2898C70.2288 37.0942 70.3398 36.8589 70.4028 36.5838H71.8495C71.7965 37.0777 71.6357 37.5185 71.3673 37.9062C71.0988 38.294 70.7392 38.599 70.2884 38.821C69.841 39.0431 69.3156 39.1541 68.7124 39.1541ZM76.3758 39.1541C75.6599 39.1541 75.0351 38.9901 74.5015 38.6619C73.9679 38.3338 73.5536 37.8748 73.2586 37.2848C72.9636 36.6948 72.8161 36.0054 72.8161 35.2166C72.8161 34.4245 72.9636 33.7318 73.2586 33.1385C73.5536 32.5452 73.9679 32.0845 74.5015 31.7564C75.0351 31.4283 75.6599 31.2642 76.3758 31.2642C77.0917 31.2642 77.7165 31.4283 78.2501 31.7564C78.7837 32.0845 79.198 32.5452 79.493 33.1385C79.788 33.7318 79.9354 34.4245 79.9354 35.2166C79.9354 36.0054 79.788 36.6948 79.493 37.2848C79.198 37.8748 78.7837 38.3338 78.2501 38.6619C77.7165 38.9901 77.0917 39.1541 76.3758 39.1541ZM76.3808 37.9062C76.8448 37.9062 77.2292 37.7836 77.5342 37.5384C77.8391 37.2931 78.0645 36.9666 78.2103 36.5589C78.3595 36.1513 78.434 35.7022 78.434 35.2116C78.434 34.7244 78.3595 34.277 78.2103 33.8693C78.0645 33.4583 77.8391 33.1286 77.5342 32.88C77.2292 32.6314 76.8448 32.5071 76.3808 32.5071C75.9134 32.5071 75.5256 32.6314 75.2174 32.88C74.9125 33.1286 74.6854 33.4583 74.5363 33.8693C74.3905 34.277 74.3176 34.7244 74.3176 35.2116C74.3176 35.7022 74.3905 36.1513 74.5363 36.5589C74.6854 36.9666 74.9125 37.2931 75.2174 37.5384C75.5256 37.7836 75.9134 37.9062 76.3808 37.9062ZM81.3147 39V31.3636H82.8012V39H81.3147ZM82.0654 30.1854C81.8069 30.1854 81.5848 30.0992 81.3992 29.9268C81.2169 29.7512 81.1258 29.5424 81.1258 29.3004C81.1258 29.0552 81.2169 28.8464 81.3992 28.674C81.5848 28.4983 81.8069 28.4105 82.0654 28.4105C82.3239 28.4105 82.5444 28.4983 82.7266 28.674C82.9123 28.8464 83.0051 29.0552 83.0051 29.3004C83.0051 29.5424 82.9123 29.7512 82.7266 29.9268C82.5444 30.0992 82.3239 30.1854 82.0654 30.1854ZM86.0076 34.4659V39H84.521V31.3636H85.9479V32.6065H86.0424C86.218 32.2022 86.4931 31.8774 86.8676 31.6321C87.2455 31.3868 87.7211 31.2642 88.2945 31.2642C88.8148 31.2642 89.2706 31.3736 89.6617 31.5923C90.0528 31.8078 90.356 32.1293 90.5715 32.5568C90.7869 32.9844 90.8946 33.513 90.8946 34.1428V39H89.4081V34.3217C89.4081 33.7682 89.2639 33.3357 88.9756 33.0241C88.6872 32.7093 88.2912 32.5518 87.7874 32.5518C87.4427 32.5518 87.1361 32.6264 86.8676 32.7756C86.6025 32.9247 86.392 33.1435 86.2362 33.4318C86.0838 33.7169 86.0076 34.0616 86.0076 34.4659ZM96.0333 39V31.3636H97.5198V39H96.0333ZM96.784 30.1854C96.5255 30.1854 96.3034 30.0992 96.1178 29.9268C95.9355 29.7512 95.8444 29.5424 95.8444 29.3004C95.8444 29.0552 95.9355 28.8464 96.1178 28.674C96.3034 28.4983 96.5255 28.4105 96.784 28.4105C97.0425 28.4105 97.263 28.4983 97.4452 28.674C97.6308 28.8464 97.7237 29.0552 97.7237 29.3004C97.7237 29.5424 97.6308 29.7512 97.4452 29.9268C97.263 30.0992 97.0425 30.1854 96.784 30.1854ZM104.962 33.228L103.615 33.4666C103.558 33.2943 103.469 33.1302 103.346 32.9744C103.227 32.8187 103.064 32.6911 102.859 32.5916C102.653 32.4922 102.397 32.4425 102.088 32.4425C101.667 32.4425 101.316 32.5369 101.034 32.7259C100.753 32.9115 100.612 33.1518 100.612 33.4467C100.612 33.7019 100.706 33.9074 100.895 34.0632C101.084 34.219 101.389 34.3466 101.81 34.446L103.023 34.7244C103.726 34.8868 104.249 35.1371 104.594 35.4751C104.939 35.8132 105.111 36.2524 105.111 36.7926C105.111 37.25 104.979 37.6577 104.713 38.0156C104.452 38.3703 104.085 38.6487 103.615 38.8509C103.147 39.053 102.605 39.1541 101.989 39.1541C101.134 39.1541 100.436 38.9718 99.8959 38.6072C99.3556 38.2393 99.0242 37.7173 98.9016 37.0412L100.338 36.8224C100.428 37.197 100.612 37.4804 100.89 37.6726C101.169 37.8615 101.532 37.956 101.979 37.956C102.466 37.956 102.856 37.8549 103.147 37.6527C103.439 37.4472 103.585 37.197 103.585 36.902C103.585 36.6634 103.495 36.4628 103.316 36.3004C103.141 36.138 102.871 36.0154 102.506 35.9325L101.213 35.6491C100.501 35.4867 99.9738 35.2282 99.6324 34.8736C99.2943 34.5189 99.1253 34.0698 99.1253 33.5263C99.1253 33.0755 99.2512 32.6811 99.5031 32.343C99.755 32.005 100.103 31.7415 100.547 31.5526C100.991 31.3603 101.5 31.2642 102.073 31.2642C102.899 31.2642 103.548 31.4432 104.022 31.8011C104.496 32.1558 104.809 32.6314 104.962 33.228ZM114.728 35.8331V31.3636H116.219V39H114.758V37.6776H114.678C114.503 38.0852 114.221 38.425 113.833 38.6967C113.449 38.9652 112.97 39.0994 112.396 39.0994C111.906 39.0994 111.472 38.9917 111.094 38.7763C110.719 38.5575 110.424 38.2344 110.209 37.8068C109.997 37.3793 109.891 36.8506 109.891 36.2209V31.3636H111.377V36.0419C111.377 36.5623 111.521 36.9766 111.81 37.2848C112.098 37.593 112.472 37.7472 112.933 37.7472C113.212 37.7472 113.488 37.6776 113.763 37.5384C114.042 37.3991 114.272 37.1887 114.454 36.907C114.64 36.6252 114.731 36.2673 114.728 35.8331ZM117.937 41.8636V31.3636H119.388V32.6016H119.513C119.599 32.4425 119.723 32.2585 119.886 32.0497C120.048 31.8409 120.273 31.6586 120.562 31.5028C120.85 31.3438 121.231 31.2642 121.705 31.2642C122.322 31.2642 122.872 31.42 123.356 31.7315C123.84 32.0431 124.219 32.4922 124.494 33.0788C124.773 33.6655 124.912 34.3714 124.912 35.1967C124.912 36.022 124.774 36.7296 124.499 37.3196C124.224 37.9062 123.846 38.3587 123.366 38.6768C122.885 38.9917 122.337 39.1491 121.72 39.1491C121.256 39.1491 120.877 39.0713 120.582 38.9155C120.29 38.7597 120.061 38.5774 119.896 38.3686C119.73 38.1598 119.602 37.9742 119.513 37.8118H119.423V41.8636H117.937ZM119.393 35.1818C119.393 35.7187 119.471 36.1894 119.627 36.5938C119.783 36.9981 120.008 37.3146 120.303 37.5433C120.598 37.7687 120.959 37.8814 121.387 37.8814C121.831 37.8814 122.202 37.7637 122.501 37.5284C122.799 37.2898 123.024 36.9666 123.177 36.5589C123.333 36.1513 123.41 35.6922 123.41 35.1818C123.41 34.678 123.334 34.2256 123.182 33.8246C123.033 33.4235 122.807 33.107 122.506 32.875C122.207 32.643 121.834 32.527 121.387 32.527C120.956 32.527 120.592 32.638 120.293 32.8601C119.998 33.0821 119.775 33.392 119.622 33.7898C119.47 34.1875 119.393 34.6515 119.393 35.1818ZM129.722 39V31.3636H131.209V39H129.722ZM130.473 30.1854C130.215 30.1854 129.993 30.0992 129.807 29.9268C129.625 29.7512 129.534 29.5424 129.534 29.3004C129.534 29.0552 129.625 28.8464 129.807 28.674C129.993 28.4983 130.215 28.4105 130.473 28.4105C130.732 28.4105 130.952 28.4983 131.134 28.674C131.32 28.8464 131.413 29.0552 131.413 29.3004C131.413 29.5424 131.32 29.7512 131.134 29.9268C130.952 30.0992 130.732 30.1854 130.473 30.1854ZM134.415 34.4659V39H132.929V31.3636H134.356V32.6065H134.45C134.626 32.2022 134.901 31.8774 135.275 31.6321C135.653 31.3868 136.129 31.2642 136.702 31.2642C137.223 31.2642 137.678 31.3736 138.069 31.5923C138.461 31.8078 138.764 32.1293 138.979 32.5568C139.195 32.9844 139.302 33.513 139.302 34.1428V39H137.816V34.3217C137.816 33.7682 137.672 33.3357 137.383 33.0241C137.095 32.7093 136.699 32.5518 136.195 32.5518C135.85 32.5518 135.544 32.6264 135.275 32.7756C135.01 32.9247 134.8 33.1435 134.644 33.4318C134.492 33.7169 134.415 34.0616 134.415 34.4659ZM148.006 31.3636V32.5568H143.835V31.3636H148.006ZM144.953 29.5341H146.44V36.7578C146.44 37.0462 146.483 37.2633 146.569 37.4091C146.655 37.5516 146.766 37.6494 146.902 37.7024C147.041 37.7521 147.192 37.777 147.354 37.777C147.474 37.777 147.578 37.7687 147.668 37.7521C147.757 37.7356 147.827 37.7223 147.876 37.7124L148.145 38.9403C148.059 38.9735 147.936 39.0066 147.777 39.0398C147.618 39.0762 147.419 39.0961 147.18 39.0994C146.789 39.1061 146.425 39.0365 146.087 38.8906C145.749 38.7448 145.475 38.5194 145.266 38.2145C145.058 37.9096 144.953 37.5268 144.953 37.0661V29.5341ZM151.021 34.4659V39H149.534V28.8182H151.001V32.6065H151.095C151.274 32.1955 151.548 31.8691 151.915 31.6271C152.283 31.3852 152.764 31.2642 153.357 31.2642C153.881 31.2642 154.338 31.3719 154.729 31.5874C155.124 31.8028 155.429 32.1243 155.644 32.5518C155.863 32.9761 155.972 33.5064 155.972 34.1428V39H154.486V34.3217C154.486 33.7616 154.342 33.3274 154.053 33.0192C153.765 32.7076 153.364 32.5518 152.85 32.5518C152.499 32.5518 152.184 32.6264 151.906 32.7756C151.63 32.9247 151.413 33.1435 151.254 33.4318C151.098 33.7169 151.021 34.0616 151.021 34.4659ZM160.967 39.1541C160.215 39.1541 159.567 38.9934 159.023 38.6719C158.483 38.3471 158.065 37.8913 157.77 37.3047C157.479 36.7147 157.333 36.0237 157.333 35.2315C157.333 34.4493 157.479 33.7599 157.77 33.1634C158.065 32.5668 158.476 32.1011 159.003 31.7663C159.534 31.4316 160.153 31.2642 160.863 31.2642C161.294 31.2642 161.711 31.3355 162.116 31.478C162.52 31.6205 162.883 31.8442 163.204 32.1491C163.526 32.4541 163.779 32.8501 163.965 33.3374C164.151 33.8213 164.243 34.4096 164.243 35.1023V35.6293H158.173V34.5156H162.787C162.787 34.1245 162.707 33.7782 162.548 33.4766C162.389 33.1716 162.165 32.9313 161.877 32.7557C161.592 32.58 161.257 32.4922 160.873 32.4922C160.455 32.4922 160.09 32.5949 159.779 32.8004C159.471 33.0026 159.232 33.2678 159.063 33.5959C158.897 33.9207 158.814 34.2737 158.814 34.6548V35.5249C158.814 36.0353 158.904 36.4695 159.083 36.8274C159.265 37.1854 159.519 37.4588 159.844 37.6477C160.168 37.8333 160.548 37.9261 160.982 37.9261C161.264 37.9261 161.521 37.8864 161.753 37.8068C161.985 37.724 162.185 37.6013 162.354 37.4389C162.523 37.2765 162.653 37.076 162.742 36.8374L164.149 37.0909C164.036 37.5052 163.834 37.8681 163.542 38.1797C163.254 38.4879 162.891 38.7282 162.454 38.9006C162.019 39.0696 161.524 39.1541 160.967 39.1541ZM170.524 28.8182V39H169.038V28.8182H170.524ZM174.466 39.169C173.983 39.169 173.545 39.0795 173.154 38.9006C172.763 38.7183 172.453 38.4548 172.224 38.1101C171.999 37.7654 171.886 37.3428 171.886 36.8423C171.886 36.4115 171.969 36.0568 172.135 35.7784C172.301 35.5 172.524 35.2796 172.806 35.1172C173.088 34.9548 173.403 34.8321 173.751 34.7493C174.099 34.6664 174.453 34.6035 174.814 34.5604C175.272 34.5073 175.643 34.4643 175.928 34.4311C176.213 34.3946 176.42 34.3366 176.55 34.2571C176.679 34.1776 176.743 34.0483 176.743 33.8693V33.8345C176.743 33.4003 176.621 33.0639 176.376 32.8253C176.134 32.5866 175.772 32.4673 175.292 32.4673C174.791 32.4673 174.397 32.5784 174.109 32.8004C173.823 33.0192 173.626 33.2628 173.517 33.5312L172.12 33.2131C172.286 32.7491 172.528 32.3745 172.846 32.0895C173.167 31.8011 173.537 31.5923 173.954 31.4631C174.372 31.3305 174.811 31.2642 175.272 31.2642C175.577 31.2642 175.9 31.3007 176.241 31.3736C176.586 31.4432 176.908 31.5724 177.206 31.7614C177.507 31.9503 177.754 32.2204 177.947 32.5717C178.139 32.9197 178.235 33.3722 178.235 33.929V39H176.783V37.956H176.724C176.627 38.1482 176.483 38.3371 176.291 38.5227C176.099 38.7083 175.852 38.8625 175.55 38.9851C175.249 39.1077 174.887 39.169 174.466 39.169ZM174.79 37.9759C175.201 37.9759 175.552 37.8946 175.844 37.7322C176.139 37.5698 176.362 37.3577 176.515 37.0959C176.671 36.8307 176.748 36.5473 176.748 36.2457V35.2614C176.695 35.3144 176.593 35.3641 176.44 35.4105C176.291 35.4536 176.12 35.4917 175.928 35.5249C175.736 35.5547 175.549 35.5829 175.366 35.6094C175.184 35.6326 175.032 35.6525 174.909 35.669C174.621 35.7055 174.357 35.7668 174.118 35.853C173.883 35.9392 173.694 36.0634 173.552 36.2259C173.412 36.3849 173.343 36.5971 173.343 36.8622C173.343 37.2301 173.479 37.5085 173.751 37.6974C174.022 37.883 174.369 37.9759 174.79 37.9759ZM185.657 33.228L184.31 33.4666C184.254 33.2943 184.164 33.1302 184.041 32.9744C183.922 32.8187 183.76 32.6911 183.554 32.5916C183.349 32.4922 183.092 32.4425 182.784 32.4425C182.363 32.4425 182.011 32.5369 181.73 32.7259C181.448 32.9115 181.307 33.1518 181.307 33.4467C181.307 33.7019 181.401 33.9074 181.59 34.0632C181.779 34.219 182.084 34.3466 182.505 34.446L183.718 34.7244C184.421 34.8868 184.945 35.1371 185.289 35.4751C185.634 35.8132 185.806 36.2524 185.806 36.7926C185.806 37.25 185.674 37.6577 185.409 38.0156C185.147 38.3703 184.781 38.6487 184.31 38.8509C183.843 39.053 183.301 39.1541 182.684 39.1541C181.829 39.1541 181.131 38.9718 180.591 38.6072C180.051 38.2393 179.719 37.7173 179.597 37.0412L181.034 36.8224C181.123 37.197 181.307 37.4804 181.585 37.6726C181.864 37.8615 182.227 37.956 182.674 37.956C183.161 37.956 183.551 37.8549 183.843 37.6527C184.134 37.4472 184.28 37.197 184.28 36.902C184.28 36.6634 184.191 36.4628 184.012 36.3004C183.836 36.138 183.566 36.0154 183.201 35.9325L181.909 35.6491C181.196 35.4867 180.669 35.2282 180.328 34.8736C179.99 34.5189 179.821 34.0698 179.821 33.5263C179.821 33.0755 179.946 32.6811 180.198 32.343C180.45 32.005 180.798 31.7415 181.242 31.5526C181.687 31.3603 182.195 31.2642 182.769 31.2642C183.594 31.2642 184.244 31.4432 184.718 31.8011C185.192 32.1558 185.505 32.6314 185.657 33.228ZM190.725 31.3636V32.5568H186.554V31.3636H190.725ZM187.673 29.5341H189.159V36.7578C189.159 37.0462 189.202 37.2633 189.289 37.4091C189.375 37.5516 189.486 37.6494 189.622 37.7024C189.761 37.7521 189.912 37.777 190.074 37.777C190.193 37.777 190.298 37.7687 190.387 37.7521C190.477 37.7356 190.546 37.7223 190.596 37.7124L190.865 38.9403C190.778 38.9735 190.656 39.0066 190.497 39.0398C190.338 39.0762 190.139 39.0961 189.9 39.0994C189.509 39.1061 189.144 39.0365 188.806 38.8906C188.468 38.7448 188.195 38.5194 187.986 38.2145C187.777 37.9096 187.673 37.5268 187.673 37.0661V29.5341ZM199.05 39.1392C198.596 39.1326 198.148 39.0497 197.707 38.8906C197.27 38.7315 196.872 38.4664 196.514 38.0952C196.156 37.724 195.869 37.2251 195.654 36.5987C195.442 35.9723 195.336 35.1901 195.336 34.2521C195.336 33.3639 195.424 32.575 195.599 31.8857C195.778 31.1963 196.035 30.6146 196.37 30.1406C196.705 29.6634 197.109 29.3004 197.583 29.0518C198.057 28.8033 198.589 28.679 199.179 28.679C199.785 28.679 200.324 28.7983 200.795 29.0369C201.265 29.2756 201.646 29.6054 201.938 30.0263C202.233 30.4472 202.42 30.9261 202.5 31.4631H200.984C200.881 31.0388 200.677 30.6925 200.372 30.424C200.067 30.1555 199.669 30.0213 199.179 30.0213C198.433 30.0213 197.851 30.3461 197.434 30.9957C197.02 31.6454 196.811 32.5485 196.807 33.7053H196.882C197.058 33.4169 197.273 33.1716 197.528 32.9695C197.787 32.764 198.075 32.6065 198.393 32.4972C198.715 32.3845 199.053 32.3281 199.408 32.3281C199.998 32.3281 200.531 32.4723 201.008 32.7607C201.489 33.0457 201.872 33.4401 202.157 33.9439C202.442 34.4477 202.584 35.0244 202.584 35.674C202.584 36.3236 202.437 36.9119 202.142 37.4389C201.85 37.9659 201.439 38.3835 200.909 38.6918C200.379 38.9967 199.759 39.1458 199.05 39.1392ZM199.045 37.8466C199.436 37.8466 199.785 37.7505 200.094 37.5582C200.402 37.366 200.645 37.1075 200.824 36.7827C201.003 36.4579 201.093 36.0949 201.093 35.6939C201.093 35.3028 201.005 34.9465 200.829 34.625C200.657 34.3035 200.418 34.0483 200.114 33.8594C199.812 33.6705 199.467 33.576 199.079 33.576C198.784 33.576 198.511 33.6323 198.259 33.745C198.011 33.8577 197.792 34.0135 197.603 34.2124C197.414 34.4112 197.265 34.6399 197.155 34.8984C197.049 35.1536 196.996 35.4238 196.996 35.7088C196.996 36.09 197.084 36.4429 197.26 36.7678C197.439 37.0926 197.682 37.3544 197.991 37.5533C198.302 37.7488 198.654 37.8466 199.045 37.8466ZM209.047 34.4659V39H207.56V28.8182H209.027V32.6065H209.121C209.3 32.1955 209.574 31.8691 209.942 31.6271C210.31 31.3852 210.79 31.2642 211.383 31.2642C211.907 31.2642 212.364 31.3719 212.756 31.5874C213.15 31.8028 213.455 32.1243 213.67 32.5518C213.889 32.9761 213.998 33.5064 213.998 34.1428V39H212.512V34.3217C212.512 33.7616 212.368 33.3274 212.079 33.0192C211.791 32.7076 211.39 32.5518 210.876 32.5518C210.525 32.5518 210.21 32.6264 209.932 32.7756C209.657 32.9247 209.44 33.1435 209.28 33.4318C209.125 33.7169 209.047 34.0616 209.047 34.4659ZM218.919 39.1541C218.203 39.1541 217.578 38.9901 217.044 38.6619C216.511 38.3338 216.097 37.8748 215.802 37.2848C215.507 36.6948 215.359 36.0054 215.359 35.2166C215.359 34.4245 215.507 33.7318 215.802 33.1385C216.097 32.5452 216.511 32.0845 217.044 31.7564C217.578 31.4283 218.203 31.2642 218.919 31.2642C219.635 31.2642 220.259 31.4283 220.793 31.7564C221.327 32.0845 221.741 32.5452 222.036 33.1385C222.331 33.7318 222.478 34.4245 222.478 35.2166C222.478 36.0054 222.331 36.6948 222.036 37.2848C221.741 37.8748 221.327 38.3338 220.793 38.6619C220.259 38.9901 219.635 39.1541 218.919 39.1541ZM218.924 37.9062C219.388 37.9062 219.772 37.7836 220.077 37.5384C220.382 37.2931 220.607 36.9666 220.753 36.5589C220.902 36.1513 220.977 35.7022 220.977 35.2116C220.977 34.7244 220.902 34.277 220.753 33.8693C220.607 33.4583 220.382 33.1286 220.077 32.88C219.772 32.6314 219.388 32.5071 218.924 32.5071C218.456 32.5071 218.069 32.6314 217.76 32.88C217.455 33.1286 217.228 33.4583 217.079 33.8693C216.933 34.277 216.861 34.7244 216.861 35.2116C216.861 35.7022 216.933 36.1513 217.079 36.5589C217.228 36.9666 217.455 37.2931 217.76 37.5384C218.069 37.7836 218.456 37.9062 218.924 37.9062ZM228.695 35.8331V31.3636H230.187V39H228.725V37.6776H228.645C228.47 38.0852 228.188 38.425 227.8 38.6967C227.416 38.9652 226.937 39.0994 226.363 39.0994C225.873 39.0994 225.439 38.9917 225.061 38.7763C224.686 38.5575 224.391 38.2344 224.176 37.8068C223.964 37.3793 223.858 36.8506 223.858 36.2209V31.3636H225.344V36.0419C225.344 36.5623 225.488 36.9766 225.777 37.2848C226.065 37.593 226.44 37.7472 226.9 37.7472C227.179 37.7472 227.455 37.6776 227.731 37.5384C228.009 37.3991 228.239 37.1887 228.422 36.907C228.607 36.6252 228.698 36.2673 228.695 35.8331ZM231.904 39V31.3636H233.341V32.5767H233.42C233.559 32.1657 233.805 31.8426 234.156 31.6072C234.511 31.3686 234.912 31.2493 235.359 31.2493C235.452 31.2493 235.561 31.2526 235.687 31.2592C235.817 31.2659 235.918 31.2741 235.991 31.2841V32.706C235.931 32.6894 235.825 32.6712 235.672 32.6513C235.52 32.6281 235.367 32.6165 235.215 32.6165C234.864 32.6165 234.55 32.6911 234.275 32.8402C234.004 32.986 233.788 33.1899 233.629 33.4517C233.47 33.7102 233.39 34.0052 233.39 34.3366V39H231.904ZM242.719 33.228L241.372 33.4666C241.316 33.2943 241.226 33.1302 241.103 32.9744C240.984 32.8187 240.822 32.6911 240.616 32.5916C240.411 32.4922 240.154 32.4425 239.846 32.4425C239.425 32.4425 239.073 32.5369 238.792 32.7259C238.51 32.9115 238.369 33.1518 238.369 33.4467C238.369 33.7019 238.464 33.9074 238.652 34.0632C238.841 34.219 239.146 34.3466 239.567 34.446L240.78 34.7244C241.483 34.8868 242.007 35.1371 242.351 35.4751C242.696 35.8132 242.868 36.2524 242.868 36.7926C242.868 37.25 242.736 37.6577 242.471 38.0156C242.209 38.3703 241.843 38.6487 241.372 38.8509C240.905 39.053 240.363 39.1541 239.746 39.1541C238.891 39.1541 238.193 38.9718 237.653 38.6072C237.113 38.2393 236.781 37.7173 236.659 37.0412L238.096 36.8224C238.185 37.197 238.369 37.4804 238.647 37.6726C238.926 37.8615 239.289 37.956 239.736 37.956C240.223 37.956 240.613 37.8549 240.905 37.6527C241.196 37.4472 241.342 37.197 241.342 36.902C241.342 36.6634 241.253 36.4628 241.074 36.3004C240.898 36.138 240.628 36.0154 240.263 35.9325L238.971 35.6491C238.258 35.4867 237.731 35.2282 237.39 34.8736C237.052 34.5189 236.883 34.0698 236.883 33.5263C236.883 33.0755 237.009 32.6811 237.26 32.343C237.512 32.005 237.86 31.7415 238.304 31.5526C238.749 31.3603 239.257 31.2642 239.831 31.2642C240.656 31.2642 241.306 31.4432 241.78 31.8011C242.254 32.1558 242.567 32.6314 242.719 33.228Z" fill="url(#paint6_linear_144_9374)"/>
<rect x="24" y="20" width="30" height="28" rx="4" fill="url(#paint7_linear_144_9374)"/>
<path d="M48 29L39.6 37.4L36.4 32.6L30 39" stroke="white" stroke-width="1.5" stroke-linecap="round" stroke-linejoin="round"/>
<path d="M44 29H48V33" stroke="white" stroke-width="1.5" stroke-linecap="round" stroke-linejoin="round"/>
<circle cx="47.5" cy="56.5" r="0.5" fill="#FF0000"/>
<circle cx="57.5" cy="24.5" r="0.5" fill="#FF0000"/>
<circle cx="24.5" cy="11.5" r="0.5" fill="#FF0000"/>
<circle cx="25" cy="52" r="1" fill="#FF0000"/>
<circle cx="19.5" cy="46.5" r="0.5" fill="#FF7000"/>
<circle cx="61.5" cy="43.5" r="0.5" fill="#FF7000"/>
<circle cx="22.5" cy="18.5" r="0.5" fill="#FF7000"/>
<circle cx="65" cy="62" r="1" fill="#FF7000"/>
<circle cx="42" cy="17" r="1" fill="#FF7000"/>
<defs>
<linearGradient id="paint0_linear_144_9374" x1="102" y1="0.5" x2="0" y2="0.5" gradientUnits="userSpaceOnUse">
<stop stop-color="#181818"/>
<stop offset="0.280743" stop-color="#FF7400"/>
<stop offset="1" stop-color="#181818"/>
</linearGradient>
<linearGradient id="paint1_linear_144_9374" x1="111.537" y1="126.59" x2="111.537" y2="172" gradientUnits="userSpaceOnUse">
<stop stop-color="#FF7400"/>
<stop offset="1" stop-color="#FF2300"/>
</linearGradient>
<linearGradient id="paint2_linear_144_9374" x1="190.927" y1="125.405" x2="-3.43926" y2="219.258" gradientUnits="userSpaceOnUse">
<stop stop-color="#FF7400" stop-opacity="0"/>
<stop offset="1" stop-color="#FF4911"/>
</linearGradient>
<linearGradient id="paint3_linear_144_9374" x1="247" y1="89" x2="247" y2="108" gradientUnits="userSpaceOnUse">
<stop stop-color="white"/>
<stop offset="1" stop-color="#999999"/>
</linearGradient>
<linearGradient id="paint4_linear_144_9374" x1="16" y1="34" x2="259" y2="34" gradientUnits="userSpaceOnUse">
<stop stop-color="#333333" stop-opacity="0"/>
<stop offset="1" stop-color="#222222"/>
</linearGradient>
<linearGradient id="paint5_linear_144_9374" x1="137.5" y1="12" x2="137.5" y2="56" gradientUnits="userSpaceOnUse">
<stop stop-color="#2D2D2D"/>
<stop offset="1" stop-color="#1A1A1A" stop-opacity="0"/>
</linearGradient>
<linearGradient id="paint6_linear_144_9374" x1="154" y1="25" x2="154" y2="42" gradientUnits="userSpaceOnUse">
<stop stop-color="white"/>
<stop offset="1" stop-color="#999999"/>
</linearGradient>
<linearGradient id="paint7_linear_144_9374" x1="39" y1="20" x2="39" y2="48" gradientUnits="userSpaceOnUse">
<stop stop-color="#FF7400"/>
<stop offset="1" stop-color="#FF2300"/>
</linearGradient>
</defs>
</svg>
